{
  "source": "C:\\Users\\Peter\\Desktop\\stuff\\MIUN\\quantitative_research\\video_compression\\videos\\BVI-HD\\BVI-HD_CDVL_videos\\ORIG\\BricksLeaves_1920x1080_60fps.mp4",
  "output": "C:\\Users\\Peter\\Desktop\\stuff\\MIUN\\quantitative_research\\video_compression\\compressed_videos\\BVI-HD\\hevc\\2\\BricksLeaves_1920x1080_60fps_hevc.mp4",
  "codec": "hevc",
  "ok": "Input #0, mov,mp4,m4a,3gp,3g2,mj2, from 'C:\\Users\\Peter\\Desktop\\stuff\\MIUN\\quantitative_research\\video_compression\\videos\\BVI-HD\\BVI-HD_CDVL_videos\\ORIG\\BricksLeaves_1920x1080_60fps.mp4':\n  Metadata:\n    major_brand     : isom\n    minor_version   : 512\n    compatible_brands: isomiso2avc1mp41\n    encoder         : Lavf54.28.101\n  Duration: 00:00:05.00, start: 0.000000, bitrate: 524627 kb/s\n  Stream #0:0[0x1](und): Video: h264 (High 4:4:4 Predictive) (avc1 / 0x31637661), yuv420p(progressive), 1920x1080, 524622 kb/s, 60 fps, 60 tbr, 60 tbn (default)\n    Metadata:\n      handler_name    : VideoHandler\n      vendor_id       : [0][0][0][0]\n[out#0/mp4 @ 000001efcd55ab40] Codec AVOption b:a (set bitrate (in bits/s)) has not been used for any stream. The most likely reason is either wrong type (e.g. a video option with no video streams) or that it is a private option of some decoder which was not actually used for any stream.\nStream mapping:\n  Stream #0:0 -> #0:0 (h264 (native) -> hevc (libx265))\nPress [q] to stop, [?] for help\n[libx265 @ 000001efce2004c0] Unknown option: \"aq-mode.\nx265 [info]: HEVC encoder version 4.1+190-8f11c33ac\nx265 [info]: build info [Windows][GCC 15.1.0][64 bit] 10bit\nx265 [info]: using cpu capabilities: MMX2 SSE2Fast LZCNT SSSE3 SSE4.2 AVX FMA3 BMI2 AVX2\nx265 [info]: Main 10 profile, Level-4.1 (Main tier)\nx265 [info]: Thread pool created using 12 threads\nx265 [info]: Slices                              : 1\nx265 [info]: frame threads / pool features       : 3 / wpp(17 rows)\nx265 [info]: Coding QT: max CU size, min CU size : 64 / 8\nx265 [info]: Residual QT: max TU size, max depth : 32 / 1 inter / 1 intra\nx265 [info]: ME / range / subpel / merge         : star / 57 / 3 / 3\nx265 [info]: Keyframe min / max / scenecut / bias  : 25 / 250 / 40 / 5.00 \nx265 [info]: Lookahead / bframes / badapt        : 25 / 4 / 2\nx265 [info]: b-pyramid / weightp / weightb       : 1 / 1 / 0\nx265 [info]: References / ref-limit  cu / depth  : 4 / on / on\nx265 [info]: AQ: mode / str / qg-size / cu-tree  : 2 / 1.0 / 32 / 1\nx265 [info]: Rate Control / qCompress            : ABR-2000 kbps / 0.60\nx265 [info]: VBV/HRD buffer / max-rate / init    : 2000 / 2000 / 0.750\nx265 [info]: tools: rect limit-modes rd=4 psy-rd=2.00 rdoq=2 psy-rdoq=1.00\nx265 [info]: tools: rskip mode=1 signhide tmvp strong-intra-smoothing lslices=4\nx265 [info]: tools: deblock sao dhdr10-info\nOutput #0, mp4, to 'C:\\Users\\Peter\\Desktop\\stuff\\MIUN\\quantitative_research\\video_compression\\compressed_videos\\BVI-HD\\hevc\\2\\BricksLeaves_1920x1080_60fps_hevc.mp4':\n  Metadata:\n    major_brand     : isom\n    minor_version   : 512\n    compatible_brands: isomiso2avc1mp41\n    encoder         : Lavf62.3.100\n  Stream #0:0(und): Video: hevc (hev1 / 0x31766568), yuv420p10le(tv, progressive), 1920x1080, q=2-31, 2000 kb/s, 60 fps, 15360 tbn (default)\n    Metadata:\n      encoder         : Lavc62.11.100 libx265\n      handler_name    : VideoHandler\n      vendor_id       : [0][0][0][0]\n    Side data:\n      cpb: bitrate max/min/avg: 2000000/0/2000000 buffer size: 2000000 vbv_delay: N/A\nframe=    0 fps=0.0 q=0.0 size=       0KiB time=N/A bitrate=N/A speed=N/A elapsed=0:00:00.52    \nframe=    0 fps=0.0 q=0.0 size=       0KiB time=N/A bitrate=N/A speed=N/A elapsed=0:00:01.07    \nframe=    0 fps=0.0 q=0.0 size=       0KiB time=N/A bitrate=N/A speed=N/A elapsed=0:00:01.60    \nframe=    0 fps=0.0 q=0.0 size=       0KiB time=N/A bitrate=N/A speed=N/A elapsed=0:00:02.13    \nframe=    0 fps=0.0 q=0.0 size=       0KiB time=N/A bitrate=N/A speed=N/A elapsed=0:00:02.65    \nframe=    0 fps=0.0 q=0.0 size=       0KiB time=N/A bitrate=N/A speed=N/A elapsed=0:00:03.17    \nframe=    0 fps=0.0 q=0.0 size=       0KiB time=N/A bitrate=N/A speed=N/A elapsed=0:00:03.68    \nframe=    0 fps=0.0 q=0.0 size=       0KiB time=N/A bitrate=N/A speed=N/A elapsed=0:00:04.20    \nframe=    1 fps=0.2 q=44.0 size=       0KiB time=-00:00:00.01 bitrate=N/A speed=N/A elapsed=0:00:04.72    \nframe=    4 fps=0.8 q=51.0 size=       0KiB time=00:00:00.03 bitrate=  10.6kbits/s speed=0.00638x elapsed=0:00:05.22    \nframe=    5 fps=0.9 q=51.0 size=       0KiB time=00:00:00.05 bitrate=   7.0kbits/s speed=0.00871x elapsed=0:00:05.74    \nframe=    5 fps=0.8 q=51.0 size=       0KiB time=00:00:00.05 bitrate=   7.0kbits/s speed=0.00798x elapsed=0:00:06.26    \nframe=    6 fps=0.9 q=51.0 size=       0KiB time=00:00:00.06 bitrate=   5.3kbits/s speed=0.00983x elapsed=0:00:06.78    \nframe=    8 fps=1.1 q=50.6 size=       0KiB time=00:00:00.10 bitrate=   3.5kbits/s speed=0.0137x elapsed=0:00:07.28    \nframe=    9 fps=1.2 q=50.3 size=       0KiB time=00:00:00.11 bitrate=   3.0kbits/s speed=0.0149x elapsed=0:00:07.81    \nframe=    9 fps=1.1 q=50.3 size=       0KiB time=00:00:00.11 bitrate=   3.0kbits/s speed=0.014x elapsed=0:00:08.33    \nframe=   10 fps=1.1 q=49.5 size=       0KiB time=00:00:00.13 bitrate=   2.6kbits/s speed=0.015x elapsed=0:00:08.86    \nframe=   11 fps=1.2 q=48.4 size=       0KiB time=00:00:00.15 bitrate=   2.3kbits/s speed=0.016x elapsed=0:00:09.39    \nframe=   12 fps=1.2 q=42.5 size=       0KiB time=00:00:00.16 bitrate=   2.1kbits/s speed=0.0168x elapsed=0:00:09.92    \nframe=   13 fps=1.2 q=48.7 size=       0KiB time=00:00:00.16 bitrate=   2.1kbits/s speed=0.016x elapsed=0:00:10.42    \nframe=   14 fps=1.3 q=48.2 size=       0KiB time=00:00:00.20 bitrate=   1.8kbits/s speed=0.0182x elapsed=0:00:10.96    \nframe=   14 fps=1.2 q=48.2 size=       0KiB time=00:00:00.20 bitrate=   1.8kbits/s speed=0.0174x elapsed=0:00:11.49    \nframe=   14 fps=1.2 q=48.2 size=       0KiB time=00:00:00.20 bitrate=   1.8kbits/s speed=0.0166x elapsed=0:00:12.04    \nframe=   14 fps=1.1 q=48.2 size=       0KiB time=00:00:00.20 bitrate=   1.8kbits/s speed=0.0158x elapsed=0:00:12.63    \nframe=   14 fps=1.1 q=48.2 size=       0KiB time=00:00:00.20 bitrate=   1.8kbits/s speed=0.0152x elapsed=0:00:13.20    \nframe=   15 fps=1.1 q=49.3 size=       0KiB time=00:00:00.21 bitrate=   1.6kbits/s speed=0.0158x elapsed=0:00:13.71    \nframe=   16 fps=1.1 q=49.3 size=       0KiB time=00:00:00.23 bitrate=   1.5kbits/s speed=0.0164x elapsed=0:00:14.24    \nframe=   17 fps=1.2 q=42.7 size=       0KiB time=00:00:00.25 bitrate=   1.4kbits/s speed=0.0169x elapsed=0:00:14.77    \nframe=   17 fps=1.1 q=42.7 size=       0KiB time=00:00:00.25 bitrate=   1.4kbits/s speed=0.0163x elapsed=0:00:15.30    \nframe=   17 fps=1.1 q=42.7 size=       0KiB time=00:00:00.25 bitrate=   1.4kbits/s speed=0.0158x elapsed=0:00:15.85    \nframe=   18 fps=1.1 q=49.1 size=       0KiB time=00:00:00.26 bitrate=   1.3kbits/s speed=0.0163x elapsed=0:00:16.40    \nframe=   18 fps=1.1 q=49.1 size=       0KiB time=00:00:00.26 bitrate=   1.3kbits/s speed=0.0157x elapsed=0:00:16.97    \nframe=   19 fps=1.1 q=49.7 size=       0KiB time=00:00:00.28 bitrate=   1.2kbits/s speed=0.0162x elapsed=0:00:17.51    \nframe=   19 fps=1.1 q=49.7 size=       0KiB time=00:00:00.28 bitrate=   1.2kbits/s speed=0.0157x elapsed=0:00:18.03    \nframe=   19 fps=1.0 q=49.7 size=       0KiB time=00:00:00.28 bitrate=   1.2kbits/s speed=0.0153x elapsed=0:00:18.57    \nframe=   20 fps=1.0 q=49.3 size=       0KiB time=00:00:00.30 bitrate=   1.2kbits/s speed=0.0157x elapsed=0:00:19.10    \nframe=   20 fps=1.0 q=49.3 size=       0KiB time=00:00:00.30 bitrate=   1.2kbits/s speed=0.0153x elapsed=0:00:19.65    \nframe=   20 fps=1.0 q=49.3 size=       0KiB time=00:00:00.30 bitrate=   1.2kbits/s speed=0.0148x elapsed=0:00:20.21    \nframe=   21 fps=1.0 q=48.8 size=       0KiB time=00:00:00.31 bitrate=   1.1kbits/s speed=0.0153x elapsed=0:00:20.74    \nframe=   22 fps=1.0 q=41.9 size=       0KiB time=00:00:00.33 bitrate=   1.1kbits/s speed=0.0157x elapsed=0:00:21.28    \nframe=   22 fps=1.0 q=41.9 size=       0KiB time=00:00:00.33 bitrate=   1.1kbits/s speed=0.0153x elapsed=0:00:21.80    \nframe=   22 fps=1.0 q=41.9 size=       0KiB time=00:00:00.33 bitrate=   1.1kbits/s speed=0.0149x elapsed=0:00:22.34    \nframe=   22 fps=1.0 q=41.9 size=       0KiB time=00:00:00.33 bitrate=   1.1kbits/s speed=0.0146x elapsed=0:00:22.87    \nframe=   22 fps=0.9 q=41.9 size=       0KiB time=00:00:00.33 bitrate=   1.1kbits/s speed=0.0142x elapsed=0:00:23.40    \nframe=   22 fps=0.9 q=41.9 size=       0KiB time=00:00:00.33 bitrate=   1.1kbits/s speed=0.0139x elapsed=0:00:23.93    \nframe=   23 fps=0.9 q=48.2 size=       0KiB time=00:00:00.35 bitrate=   1.0kbits/s speed=0.0143x elapsed=0:00:24.50    \nframe=   23 fps=0.9 q=48.2 size=       0KiB time=00:00:00.35 bitrate=   1.0kbits/s speed=0.014x elapsed=0:00:25.01    \nframe=   23 fps=0.9 q=48.2 size=       0KiB time=00:00:00.35 bitrate=   1.0kbits/s speed=0.0137x elapsed=0:00:25.55    \nframe=   23 fps=0.9 q=48.2 size=       0KiB time=00:00:00.35 bitrate=   1.0kbits/s speed=0.0134x elapsed=0:00:26.09    \nframe=   24 fps=0.9 q=48.7 size=       0KiB time=00:00:00.36 bitrate=   1.0kbits/s speed=0.0138x elapsed=0:00:26.61    \nframe=   24 fps=0.9 q=48.7 size=       0KiB time=00:00:00.36 bitrate=   1.0kbits/s speed=0.0135x elapsed=0:00:27.16    \nframe=   25 fps=0.9 q=48.9 size=       0KiB time=00:00:00.38 bitrate=   0.9kbits/s speed=0.0138x elapsed=0:00:27.72    \nframe=   25 fps=0.9 q=48.9 size=       0KiB time=00:00:00.38 bitrate=   0.9kbits/s speed=0.0136x elapsed=0:00:28.27    \nframe=   25 fps=0.9 q=48.9 size=       0KiB time=00:00:00.38 bitrate=   0.9kbits/s speed=0.0133x elapsed=0:00:28.80    \nframe=   25 fps=0.9 q=48.9 size=       0KiB time=00:00:00.38 bitrate=   0.9kbits/s speed=0.0131x elapsed=0:00:29.32    \nframe=   25 fps=0.8 q=48.9 size=       0KiB time=00:00:00.38 bitrate=   0.9kbits/s speed=0.0128x elapsed=0:00:29.88    \nframe=   25 fps=0.8 q=48.9 size=       0KiB time=00:00:00.38 bitrate=   0.9kbits/s speed=0.0126x elapsed=0:00:30.43    \nframe=   26 fps=0.8 q=48.9 size=       0KiB time=00:00:00.40 bitrate=   0.9kbits/s speed=0.0129x elapsed=0:00:30.99    \nframe=   27 fps=0.9 q=42.0 size=       0KiB time=00:00:00.41 bitrate=   0.8kbits/s speed=0.0132x elapsed=0:00:31.53    \nframe=   27 fps=0.8 q=42.0 size=       0KiB time=00:00:00.41 bitrate=   0.8kbits/s speed=0.013x elapsed=0:00:32.09    \nframe=   27 fps=0.8 q=42.0 size=       0KiB time=00:00:00.41 bitrate=   0.8kbits/s speed=0.0128x elapsed=0:00:32.61    \nframe=   27 fps=0.8 q=42.0 size=       0KiB time=00:00:00.41 bitrate=   0.8kbits/s speed=0.0126x elapsed=0:00:33.17    \nframe=   28 fps=0.8 q=48.2 size=       0KiB time=00:00:00.43 bitrate=   0.8kbits/s speed=0.0128x elapsed=0:00:33.73    \nframe=   29 fps=0.8 q=48.8 size=       0KiB time=00:00:00.45 bitrate=   0.8kbits/s speed=0.0131x elapsed=0:00:34.29    \nframe=   30 fps=0.9 q=48.4 size=       0KiB time=00:00:00.46 bitrate=   0.8kbits/s speed=0.0134x elapsed=0:00:34.81    \nframe=   30 fps=0.8 q=48.4 size=       0KiB time=00:00:00.46 bitrate=   0.8kbits/s speed=0.0132x elapsed=0:00:35.36    \nframe=   30 fps=0.8 q=48.4 size=       0KiB time=00:00:00.46 bitrate=   0.8kbits/s speed=0.013x elapsed=0:00:35.93    \nframe=   30 fps=0.8 q=48.4 size=       0KiB time=00:00:00.46 bitrate=   0.8kbits/s speed=0.0128x elapsed=0:00:36.47    \nframe=   31 fps=0.8 q=48.5 size=       0KiB time=00:00:00.48 bitrate=   0.7kbits/s speed=0.013x elapsed=0:00:37.03    \nframe=   31 fps=0.8 q=48.5 size=       0KiB time=00:00:00.48 bitrate=   0.7kbits/s speed=0.0129x elapsed=0:00:37.60    \nframe=   32 fps=0.8 q=41.1 size=       0KiB time=00:00:00.50 bitrate=   0.7kbits/s speed=0.0131x elapsed=0:00:38.14    \nframe=   32 fps=0.8 q=41.1 size=       0KiB time=00:00:00.50 bitrate=   0.7kbits/s speed=0.0129x elapsed=0:00:38.68    \nframe=   32 fps=0.8 q=41.1 size=       0KiB time=00:00:00.50 bitrate=   0.7kbits/s speed=0.0127x elapsed=0:00:39.25    \nframe=   32 fps=0.8 q=41.1 size=       0KiB time=00:00:00.50 bitrate=   0.7kbits/s speed=0.0126x elapsed=0:00:39.79    \nframe=   34 fps=0.8 q=48.4 size=       0KiB time=00:00:00.53 bitrate=   0.7kbits/s speed=0.0132x elapsed=0:00:40.34    \nframe=   34 fps=0.8 q=48.4 size=       0KiB time=00:00:00.53 bitrate=   0.7kbits/s speed=0.013x elapsed=0:00:40.91    \nframe=   34 fps=0.8 q=48.4 size=       0KiB time=00:00:00.53 bitrate=   0.7kbits/s speed=0.0129x elapsed=0:00:41.45    \nframe=   35 fps=0.8 q=48.0 size=       0KiB time=00:00:00.55 bitrate=   0.6kbits/s speed=0.0131x elapsed=0:00:41.98    \nframe=   35 fps=0.8 q=48.0 size=       0KiB time=00:00:00.55 bitrate=   0.6kbits/s speed=0.0129x elapsed=0:00:42.53    \nframe=   35 fps=0.8 q=48.0 size=       0KiB time=00:00:00.55 bitrate=   0.6kbits/s speed=0.0128x elapsed=0:00:43.07    \nframe=   36 fps=0.8 q=48.1 size=       0KiB time=00:00:00.56 bitrate=   0.6kbits/s speed=0.013x elapsed=0:00:43.62    \nframe=   36 fps=0.8 q=48.1 size=       0KiB time=00:00:00.56 bitrate=   0.6kbits/s speed=0.0128x elapsed=0:00:44.16    \nframe=   36 fps=0.8 q=48.1 size=       0KiB time=00:00:00.56 bitrate=   0.6kbits/s speed=0.0127x elapsed=0:00:44.69    \nframe=   36 fps=0.8 q=48.1 size=       0KiB time=00:00:00.56 bitrate=   0.6kbits/s speed=0.0125x elapsed=0:00:45.22    \nframe=   37 fps=0.8 q=41.3 size=       0KiB time=00:00:00.58 bitrate=   0.6kbits/s speed=0.0127x elapsed=0:00:45.76    \nframe=   37 fps=0.8 q=41.3 size=       0KiB time=00:00:00.58 bitrate=   0.6kbits/s speed=0.0126x elapsed=0:00:46.28    \nframe=   37 fps=0.8 q=41.3 size=       0KiB time=00:00:00.58 bitrate=   0.6kbits/s speed=0.0124x elapsed=0:00:46.89    \nframe=   38 fps=0.8 q=47.3 size=       0KiB time=00:00:00.60 bitrate=   0.6kbits/s speed=0.0126x elapsed=0:00:47.46    \nframe=   38 fps=0.8 q=47.3 size=       0KiB time=00:00:00.60 bitrate=   0.6kbits/s speed=0.0125x elapsed=0:00:48.07    \nframe=   38 fps=0.8 q=47.3 size=       0KiB time=00:00:00.60 bitrate=   0.6kbits/s speed=0.0123x elapsed=0:00:48.65    \nframe=   38 fps=0.8 q=47.3 size=       0KiB time=00:00:00.60 bitrate=   0.6kbits/s speed=0.0122x elapsed=0:00:49.22    \nframe=   38 fps=0.8 q=47.3 size=       0KiB time=00:00:00.60 bitrate=   0.6kbits/s speed=0.012x elapsed=0:00:49.89    \nframe=   38 fps=0.8 q=47.3 size=       0KiB time=00:00:00.60 bitrate=   0.6kbits/s speed=0.0119x elapsed=0:00:50.50    \nframe=   38 fps=0.7 q=47.3 size=       0KiB time=00:00:00.60 bitrate=   0.6kbits/s speed=0.0117x elapsed=0:00:51.14    \nframe=   38 fps=0.7 q=47.3 size=       0KiB time=00:00:00.60 bitrate=   0.6kbits/s speed=0.0116x elapsed=0:00:51.73    \nframe=   38 fps=0.7 q=47.3 size=       0KiB time=00:00:00.60 bitrate=   0.6kbits/s speed=0.0115x elapsed=0:00:52.38    \nframe=   38 fps=0.7 q=47.3 size=       0KiB time=00:00:00.60 bitrate=   0.6kbits/s speed=0.0113x elapsed=0:00:53.03    \nframe=   38 fps=0.7 q=47.3 size=       0KiB time=00:00:00.60 bitrate=   0.6kbits/s speed=0.0112x elapsed=0:00:53.67    \nframe=   38 fps=0.7 q=47.3 size=       0KiB time=00:00:00.60 bitrate=   0.6kbits/s speed=0.0111x elapsed=0:00:54.26    \nframe=   39 fps=0.7 q=48.4 size=       0KiB time=00:00:00.61 bitrate=   0.6kbits/s speed=0.0113x elapsed=0:00:54.79    \nframe=   39 fps=0.7 q=48.4 size=       0KiB time=00:00:00.61 bitrate=   0.6kbits/s speed=0.0111x elapsed=0:00:55.31    \nframe=   39 fps=0.7 q=48.4 size=       0KiB time=00:00:00.61 bitrate=   0.6kbits/s speed=0.011x elapsed=0:00:55.85    \nframe=   39 fps=0.7 q=48.4 size=       0KiB time=00:00:00.61 bitrate=   0.6kbits/s speed=0.0109x elapsed=0:00:56.41    \nframe=   39 fps=0.7 q=48.4 size=       0KiB time=00:00:00.61 bitrate=   0.6kbits/s speed=0.0108x elapsed=0:00:56.99    \nframe=   39 fps=0.7 q=48.4 size=       0KiB time=00:00:00.61 bitrate=   0.6kbits/s speed=0.0107x elapsed=0:00:57.52    \nframe=   40 fps=0.7 q=47.8 size=       0KiB time=00:00:00.63 bitrate=   0.6kbits/s speed=0.0109x elapsed=0:00:58.05    \nframe=   41 fps=0.7 q=47.7 size=       0KiB time=00:00:00.65 bitrate=   0.5kbits/s speed=0.0111x elapsed=0:00:58.58    \nframe=   41 fps=0.7 q=47.7 size=       0KiB time=00:00:00.65 bitrate=   0.5kbits/s speed=0.011x elapsed=0:00:59.10    \nframe=   42 fps=0.7 q=41.3 size=       0KiB time=00:00:00.66 bitrate=   0.5kbits/s speed=0.0112x elapsed=0:00:59.62    \nframe=   43 fps=0.7 q=47.1 size=       0KiB time=00:00:00.68 bitrate=   0.5kbits/s speed=0.0114x elapsed=0:01:00.13    \nframe=   44 fps=0.7 q=48.1 size=       0KiB time=00:00:00.70 bitrate=   0.5kbits/s speed=0.0115x elapsed=0:01:00.66    \nframe=   44 fps=0.7 q=48.1 size=       0KiB time=00:00:00.70 bitrate=   0.5kbits/s speed=0.0114x elapsed=0:01:01.18    \nframe=   45 fps=0.7 q=47.6 size=       0KiB time=00:00:00.71 bitrate=   0.5kbits/s speed=0.0116x elapsed=0:01:01.69    \nframe=   46 fps=0.7 q=47.5 size=       0KiB time=00:00:00.73 bitrate=   0.5kbits/s speed=0.0118x elapsed=0:01:02.22    \nframe=   46 fps=0.7 q=47.5 size=       0KiB time=00:00:00.73 bitrate=   0.5kbits/s speed=0.0117x elapsed=0:01:02.79    \nframe=   47 fps=0.7 q=41.1 size=       0KiB time=00:00:00.75 bitrate=   0.5kbits/s speed=0.0118x elapsed=0:01:03.31    \nframe=   47 fps=0.7 q=41.1 size=       0KiB time=00:00:00.75 bitrate=   0.5kbits/s speed=0.0117x elapsed=0:01:03.87    \nframe=   48 fps=0.7 q=46.7 size=       0KiB time=00:00:00.76 bitrate=   0.5kbits/s speed=0.0119x elapsed=0:01:04.38    \nframe=   48 fps=0.7 q=46.7 size=       0KiB time=00:00:00.76 bitrate=   0.5kbits/s speed=0.0118x elapsed=0:01:04.90    \nframe=   48 fps=0.7 q=46.7 size=       0KiB time=00:00:00.76 bitrate=   0.5kbits/s speed=0.0117x elapsed=0:01:05.42    \nframe=   49 fps=0.7 q=47.6 size=       0KiB time=00:00:00.78 bitrate=   0.4kbits/s speed=0.0119x elapsed=0:01:05.93    \nframe=   50 fps=0.8 q=47.3 size=       0KiB time=00:00:00.80 bitrate=   0.4kbits/s speed=0.012x elapsed=0:01:06.45    \nframe=   50 fps=0.7 q=47.3 size=       0KiB time=00:00:00.80 bitrate=   0.4kbits/s speed=0.0119x elapsed=0:01:06.97    \nframe=   51 fps=0.8 q=47.5 size=       0KiB time=00:00:00.81 bitrate=   0.4kbits/s speed=0.0121x elapsed=0:01:07.50    \nframe=   51 fps=0.7 q=47.5 size=       0KiB time=00:00:00.81 bitrate=   0.4kbits/s speed=0.012x elapsed=0:01:08.02    \nframe=   51 fps=0.7 q=47.5 size=       0KiB time=00:00:00.81 bitrate=   0.4kbits/s speed=0.0119x elapsed=0:01:08.54    \nframe=   52 fps=0.8 q=41.0 size=       0KiB time=00:00:00.83 bitrate=   0.4kbits/s speed=0.0121x elapsed=0:01:09.06    \nframe=   53 fps=0.8 q=46.5 size=       0KiB time=00:00:00.85 bitrate=   0.4kbits/s speed=0.0122x elapsed=0:01:09.57    \nframe=   54 fps=0.8 q=47.6 size=       0KiB time=00:00:00.86 bitrate=   0.4kbits/s speed=0.0124x elapsed=0:01:10.10    \nframe=   54 fps=0.8 q=47.6 size=       0KiB time=00:00:00.86 bitrate=   0.4kbits/s speed=0.0123x elapsed=0:01:10.62    \nframe=   55 fps=0.8 q=47.0 size=       0KiB time=00:00:00.88 bitrate=   0.4kbits/s speed=0.0124x elapsed=0:01:11.16    \nframe=   55 fps=0.8 q=47.0 size=       0KiB time=00:00:00.88 bitrate=   0.4kbits/s speed=0.0123x elapsed=0:01:11.68    \nframe=   56 fps=0.8 q=47.2 size=       0KiB time=00:00:00.90 bitrate=   0.4kbits/s speed=0.0125x elapsed=0:01:12.21    \nframe=   56 fps=0.8 q=47.2 size=       0KiB time=00:00:00.90 bitrate=   0.4kbits/s speed=0.0124x elapsed=0:01:12.72    \nframe=   57 fps=0.8 q=41.6 size=       0KiB time=00:00:00.91 bitrate=   0.4kbits/s speed=0.0125x elapsed=0:01:13.24    \nframe=   57 fps=0.8 q=41.6 size=       0KiB time=00:00:00.91 bitrate=   0.4kbits/s speed=0.0124x elapsed=0:01:13.75    \nframe=   58 fps=0.8 q=46.4 size=       0KiB time=00:00:00.93 bitrate=   0.4kbits/s speed=0.0126x elapsed=0:01:14.28    \nframe=   58 fps=0.8 q=46.4 size=       0KiB time=00:00:00.93 bitrate=   0.4kbits/s speed=0.0125x elapsed=0:01:14.82    \nframe=   58 fps=0.8 q=46.4 size=       0KiB time=00:00:00.93 bitrate=   0.4kbits/s speed=0.0124x elapsed=0:01:15.33    \nframe=   59 fps=0.8 q=47.3 size=       0KiB time=00:00:00.95 bitrate=   0.4kbits/s speed=0.0125x elapsed=0:01:15.86    \nframe=   59 fps=0.8 q=47.3 size=       0KiB time=00:00:00.95 bitrate=   0.4kbits/s speed=0.0124x elapsed=0:01:16.39    \nframe=   60 fps=0.8 q=46.6 size=       0KiB time=00:00:00.96 bitrate=   0.4kbits/s speed=0.0126x elapsed=0:01:16.91    \nframe=   61 fps=0.8 q=46.9 size=       0KiB time=00:00:00.98 bitrate=   0.4kbits/s speed=0.0127x elapsed=0:01:17.44    \nframe=   62 fps=0.8 q=41.3 size=       0KiB time=00:00:01.00 bitrate=   0.4kbits/s speed=0.0128x elapsed=0:01:17.97    \nframe=   62 fps=0.8 q=41.3 size=       0KiB time=00:00:01.00 bitrate=   0.4kbits/s speed=0.0127x elapsed=0:01:18.54    \nframe=   62 fps=0.8 q=41.3 size=       0KiB time=00:00:01.00 bitrate=   0.4kbits/s speed=0.0126x elapsed=0:01:19.06    \nframe=   63 fps=0.8 q=46.4 size=       0KiB time=00:00:01.01 bitrate=   0.3kbits/s speed=0.0128x elapsed=0:01:19.58    \nframe=   63 fps=0.8 q=46.4 size=       0KiB time=00:00:01.01 bitrate=   0.3kbits/s speed=0.0127x elapsed=0:01:20.12    \nframe=   64 fps=0.8 q=47.0 size=       0KiB time=00:00:01.03 bitrate=   0.3kbits/s speed=0.0128x elapsed=0:01:20.65    \nframe=   64 fps=0.8 q=47.0 size=       0KiB time=00:00:01.03 bitrate=   0.3kbits/s speed=0.0127x elapsed=0:01:21.19    \nframe=   64 fps=0.8 q=47.0 size=       0KiB time=00:00:01.03 bitrate=   0.3kbits/s speed=0.0126x elapsed=0:01:21.72    \nframe=   65 fps=0.8 q=46.6 size=       0KiB time=00:00:01.05 bitrate=   0.3kbits/s speed=0.0128x elapsed=0:01:22.25    \nframe=   66 fps=0.8 q=46.8 size=       0KiB time=00:00:01.06 bitrate=   0.3kbits/s speed=0.0129x elapsed=0:01:22.78    \nframe=   66 fps=0.8 q=46.8 size=       0KiB time=00:00:01.06 bitrate=   0.3kbits/s speed=0.0128x elapsed=0:01:23.32    \nframe=   67 fps=0.8 q=41.1 size=       0KiB time=00:00:01.08 bitrate=   0.3kbits/s speed=0.0129x elapsed=0:01:23.84    \nframe=   68 fps=0.8 q=46.3 size=       0KiB time=00:00:01.10 bitrate=   0.3kbits/s speed=0.013x elapsed=0:01:24.38    \nframe=   69 fps=0.8 q=46.9 size=     256KiB time=00:00:01.11 bitrate=1878.4kbits/s speed=0.0131x elapsed=0:01:24.94    \nframe=   69 fps=0.8 q=46.9 size=     256KiB time=00:00:01.11 bitrate=1878.4kbits/s speed=0.0131x elapsed=0:01:25.50    \nframe=   69 fps=0.8 q=46.9 size=     256KiB time=00:00:01.11 bitrate=1878.4kbits/s speed=0.013x elapsed=0:01:26.09    \nframe=   69 fps=0.8 q=46.9 size=     256KiB time=00:00:01.11 bitrate=1878.4kbits/s speed=0.0129x elapsed=0:01:26.67    \nframe=   69 fps=0.8 q=46.9 size=     256KiB time=00:00:01.11 bitrate=1878.4kbits/s speed=0.0128x elapsed=0:01:27.31    \nframe=   70 fps=0.8 q=46.7 size=     256KiB time=00:00:01.13 bitrate=1850.7kbits/s speed=0.0129x elapsed=0:01:27.84    \nframe=   70 fps=0.8 q=46.7 size=     256KiB time=00:00:01.13 bitrate=1850.7kbits/s speed=0.0128x elapsed=0:01:28.38    \nframe=   71 fps=0.8 q=46.5 size=     256KiB time=00:00:01.15 bitrate=1823.9kbits/s speed=0.0129x elapsed=0:01:28.90    \nframe=   73 fps=0.8 q=45.7 size=     256KiB time=00:00:01.18 bitrate=1772.5kbits/s speed=0.0132x elapsed=0:01:29.43    \nframe=   74 fps=0.8 q=46.9 size=     256KiB time=00:00:01.20 bitrate=1747.9kbits/s speed=0.0133x elapsed=0:01:29.98    \nframe=   74 fps=0.8 q=46.9 size=     256KiB time=00:00:01.20 bitrate=1747.9kbits/s speed=0.0133x elapsed=0:01:30.51    \nframe=   74 fps=0.8 q=46.9 size=     256KiB time=00:00:01.20 bitrate=1747.9kbits/s speed=0.0132x elapsed=0:01:31.03    \nframe=   75 fps=0.8 q=46.8 size=     256KiB time=00:00:01.21 bitrate=1724.0kbits/s speed=0.0133x elapsed=0:01:31.57    \nframe=   76 fps=0.8 q=46.8 size=     256KiB time=00:00:01.23 bitrate=1700.7kbits/s speed=0.0134x elapsed=0:01:32.10    \nframe=   76 fps=0.8 q=46.8 size=     256KiB time=00:00:01.23 bitrate=1700.7kbits/s speed=0.0133x elapsed=0:01:32.68    \nframe=   77 fps=0.8 q=40.3 size=     256KiB time=00:00:01.25 bitrate=1678.0kbits/s speed=0.0134x elapsed=0:01:33.23    \nframe=   77 fps=0.8 q=40.3 size=     256KiB time=00:00:01.25 bitrate=1678.0kbits/s speed=0.0133x elapsed=0:01:33.78    \nframe=   78 fps=0.8 q=45.9 size=     256KiB time=00:00:01.26 bitrate=1655.9kbits/s speed=0.0134x elapsed=0:01:34.31    \nframe=   79 fps=0.8 q=47.1 size=     256KiB time=00:00:01.28 bitrate=1634.4kbits/s speed=0.0135x elapsed=0:01:34.87    \nframe=   79 fps=0.8 q=47.1 size=     256KiB time=00:00:01.28 bitrate=1634.4kbits/s speed=0.0135x elapsed=0:01:35.40    \nframe=   79 fps=0.8 q=47.1 size=     256KiB time=00:00:01.28 bitrate=1634.4kbits/s speed=0.0134x elapsed=0:01:35.96    \nframe=   80 fps=0.8 q=47.0 size=     256KiB time=00:00:01.30 bitrate=1613.5kbits/s speed=0.0135x elapsed=0:01:36.52    \nframe=   80 fps=0.8 q=47.0 size=     256KiB time=00:00:01.30 bitrate=1613.5kbits/s speed=0.0134x elapsed=0:01:37.07    \nframe=   81 fps=0.8 q=47.2 size=     256KiB time=00:00:01.31 bitrate=1593.0kbits/s speed=0.0135x elapsed=0:01:37.64    \nframe=   81 fps=0.8 q=47.2 size=     256KiB time=00:00:01.31 bitrate=1593.0kbits/s speed=0.0134x elapsed=0:01:38.25    \nframe=   81 fps=0.8 q=47.2 size=     256KiB time=00:00:01.31 bitrate=1593.0kbits/s speed=0.0133x elapsed=0:01:38.83    \nframe=   81 fps=0.8 q=47.2 size=     256KiB time=00:00:01.31 bitrate=1593.0kbits/s speed=0.0132x elapsed=0:01:39.39    \nframe=   81 fps=0.8 q=47.2 size=     256KiB time=00:00:01.31 bitrate=1593.0kbits/s speed=0.0132x elapsed=0:01:39.99    \nframe=   81 fps=0.8 q=47.2 size=     256KiB time=00:00:01.31 bitrate=1593.0kbits/s speed=0.0131x elapsed=0:01:40.53    \nframe=   81 fps=0.8 q=47.2 size=     256KiB time=00:00:01.31 bitrate=1593.0kbits/s speed=0.013x elapsed=0:01:41.08    \nframe=   81 fps=0.8 q=47.2 size=     256KiB time=00:00:01.31 bitrate=1593.0kbits/s speed=0.013x elapsed=0:01:41.62    \nframe=   81 fps=0.8 q=47.2 size=     256KiB time=00:00:01.31 bitrate=1593.0kbits/s speed=0.0129x elapsed=0:01:42.14    \nframe=   81 fps=0.8 q=47.2 size=     256KiB time=00:00:01.31 bitrate=1593.0kbits/s speed=0.0128x elapsed=0:01:42.70    \nframe=   82 fps=0.8 q=40.8 size=     256KiB time=00:00:01.33 bitrate=1573.1kbits/s speed=0.0129x elapsed=0:01:43.26    \nframe=   82 fps=0.8 q=40.8 size=     256KiB time=00:00:01.33 bitrate=1573.1kbits/s speed=0.0128x elapsed=0:01:43.87    \nframe=   82 fps=0.8 q=40.8 size=     256KiB time=00:00:01.33 bitrate=1573.1kbits/s speed=0.0128x elapsed=0:01:44.47    \nframe=   82 fps=0.8 q=40.8 size=     256KiB time=00:00:01.33 bitrate=1573.1kbits/s speed=0.0127x elapsed=0:01:44.99    \nframe=   83 fps=0.8 q=46.1 size=     256KiB time=00:00:01.35 bitrate=1553.7kbits/s speed=0.0128x elapsed=0:01:45.50    \nframe=   83 fps=0.8 q=46.1 size=     256KiB time=00:00:01.35 bitrate=1553.7kbits/s speed=0.0127x elapsed=0:01:46.04    \nframe=   84 fps=0.8 q=47.2 size=     256KiB time=00:00:01.36 bitrate=1534.8kbits/s speed=0.0128x elapsed=0:01:46.56    \nframe=   84 fps=0.8 q=47.2 size=     256KiB time=00:00:01.36 bitrate=1534.8kbits/s speed=0.0128x elapsed=0:01:47.09    \nframe=   84 fps=0.8 q=47.2 size=     256KiB time=00:00:01.36 bitrate=1534.8kbits/s speed=0.0127x elapsed=0:01:47.65    \nframe=   85 fps=0.8 q=46.8 size=     256KiB time=00:00:01.38 bitrate=1516.3kbits/s speed=0.0128x elapsed=0:01:48.16    \nframe=   85 fps=0.8 q=46.8 size=     256KiB time=00:00:01.38 bitrate=1516.3kbits/s speed=0.0127x elapsed=0:01:48.71    \nframe=   86 fps=0.8 q=46.7 size=     256KiB time=00:00:01.40 bitrate=1498.2kbits/s speed=0.0128x elapsed=0:01:49.22    \nframe=   87 fps=0.8 q=40.7 size=     256KiB time=00:00:01.41 bitrate=1480.6kbits/s speed=0.0129x elapsed=0:01:49.75    \nframe=   88 fps=0.8 q=46.0 size=     256KiB time=00:00:01.43 bitrate=1463.4kbits/s speed=0.013x elapsed=0:01:50.26    \nframe=   89 fps=0.8 q=47.0 size=     256KiB time=00:00:01.45 bitrate=1446.6kbits/s speed=0.0131x elapsed=0:01:50.78    \nframe=   90 fps=0.8 q=46.6 size=     256KiB time=00:00:01.46 bitrate=1430.1kbits/s speed=0.0132x elapsed=0:01:51.32    \nframe=   90 fps=0.8 q=46.6 size=     256KiB time=00:00:01.46 bitrate=1430.1kbits/s speed=0.0131x elapsed=0:01:51.88    \nframe=   92 fps=0.8 q=40.6 size=     256KiB time=00:00:01.50 bitrate=1398.3kbits/s speed=0.0133x elapsed=0:01:52.41    \nframe=   92 fps=0.8 q=40.6 size=     256KiB time=00:00:01.50 bitrate=1398.3kbits/s speed=0.0133x elapsed=0:01:52.93    \nframe=   92 fps=0.8 q=40.6 size=     256KiB time=00:00:01.50 bitrate=1398.3kbits/s speed=0.0132x elapsed=0:01:53.46    \nframe=   94 fps=0.8 q=46.7 size=     256KiB time=00:00:01.53 bitrate=1367.9kbits/s speed=0.0134x elapsed=0:01:54.00    \nframe=   94 fps=0.8 q=46.7 size=     256KiB time=00:00:01.53 bitrate=1367.9kbits/s speed=0.0134x elapsed=0:01:54.52    \nframe=   94 fps=0.8 q=46.7 size=     256KiB time=00:00:01.53 bitrate=1367.9kbits/s speed=0.0133x elapsed=0:01:55.05    \nframe=   95 fps=0.8 q=46.7 size=     256KiB time=00:00:01.55 bitrate=1353.2kbits/s speed=0.0134x elapsed=0:01:55.59    \nframe=   97 fps=0.8 q=40.5 size=     256KiB time=00:00:01.58 bitrate=1324.7kbits/s speed=0.0136x elapsed=0:01:56.11    \nframe=   98 fps=0.8 q=45.9 size=     256KiB time=00:00:01.60 bitrate=1310.9kbits/s speed=0.0137x elapsed=0:01:56.64    \nframe=   98 fps=0.8 q=45.9 size=     256KiB time=00:00:01.60 bitrate=1310.9kbits/s speed=0.0137x elapsed=0:01:57.14    \nframe=   98 fps=0.8 q=45.9 size=     256KiB time=00:00:01.60 bitrate=1310.9kbits/s speed=0.0136x elapsed=0:01:57.67    \nframe=   99 fps=0.8 q=46.8 size=     256KiB time=00:00:01.61 bitrate=1297.4kbits/s speed=0.0137x elapsed=0:01:58.19    \nframe=  100 fps=0.8 q=46.7 size=     256KiB time=00:00:01.63 bitrate=1284.2kbits/s speed=0.0138x elapsed=0:01:58.70    \nframe=  100 fps=0.8 q=46.7 size=     256KiB time=00:00:01.63 bitrate=1284.2kbits/s speed=0.0137x elapsed=0:01:59.23    \nframe=  101 fps=0.8 q=46.8 size=     256KiB time=00:00:01.65 bitrate=1271.2kbits/s speed=0.0138x elapsed=0:01:59.82    \nframe=  101 fps=0.8 q=46.8 size=     256KiB time=00:00:01.65 bitrate=1271.2kbits/s speed=0.0137x elapsed=0:02:00.45    \nframe=  101 fps=0.8 q=46.8 size=     256KiB time=00:00:01.65 bitrate=1271.2kbits/s speed=0.0136x elapsed=0:02:00.97    \nframe=  101 fps=0.8 q=46.8 size=     256KiB time=00:00:01.65 bitrate=1271.2kbits/s speed=0.0136x elapsed=0:02:01.50    \nframe=  101 fps=0.8 q=46.8 size=     256KiB time=00:00:01.65 bitrate=1271.2kbits/s speed=0.0135x elapsed=0:02:02.03    \nframe=  102 fps=0.8 q=40.8 size=     256KiB time=00:00:01.66 bitrate=1258.5kbits/s speed=0.0136x elapsed=0:02:02.55    \nframe=  103 fps=0.8 q=45.7 size=     256KiB time=00:00:01.68 bitrate=1246.0kbits/s speed=0.0137x elapsed=0:02:03.11    \nframe=  103 fps=0.8 q=45.7 size=     256KiB time=00:00:01.68 bitrate=1246.0kbits/s speed=0.0136x elapsed=0:02:03.64    \nframe=  104 fps=0.8 q=46.5 size=     256KiB time=00:00:01.68 bitrate=1246.0kbits/s speed=0.0136x elapsed=0:02:04.19    \nframe=  104 fps=0.8 q=46.5 size=     256KiB time=00:00:01.70 bitrate=1233.8kbits/s speed=0.0136x elapsed=0:02:04.75    \nframe=  104 fps=0.8 q=46.5 size=     256KiB time=00:00:01.70 bitrate=1233.8kbits/s speed=0.0136x elapsed=0:02:05.27    \nframe=  104 fps=0.8 q=46.5 size=     256KiB time=00:00:01.70 bitrate=1233.8kbits/s speed=0.0135x elapsed=0:02:05.80    \nframe=  105 fps=0.8 q=46.6 size=     256KiB time=00:00:01.71 bitrate=1221.8kbits/s speed=0.0136x elapsed=0:02:06.33    \nframe=  105 fps=0.8 q=46.6 size=     256KiB time=00:00:01.71 bitrate=1221.8kbits/s speed=0.0135x elapsed=0:02:06.89    \nframe=  105 fps=0.8 q=46.6 size=     256KiB time=00:00:01.71 bitrate=1221.8kbits/s speed=0.0135x elapsed=0:02:07.44    \nframe=  106 fps=0.8 q=46.7 size=     256KiB time=00:00:01.73 bitrate=1210.1kbits/s speed=0.0135x elapsed=0:02:07.96    \nframe=  106 fps=0.8 q=46.7 size=     256KiB time=00:00:01.73 bitrate=1210.1kbits/s speed=0.0135x elapsed=0:02:08.53    \nframe=  107 fps=0.8 q=40.5 size=     256KiB time=00:00:01.75 bitrate=1198.6kbits/s speed=0.0136x elapsed=0:02:09.11    \nframe=  107 fps=0.8 q=40.5 size=     256KiB time=00:00:01.75 bitrate=1198.6kbits/s speed=0.0135x elapsed=0:02:09.66    \nframe=  107 fps=0.8 q=40.5 size=     256KiB time=00:00:01.75 bitrate=1198.6kbits/s speed=0.0134x elapsed=0:02:10.26    \nframe=  108 fps=0.8 q=45.9 size=     256KiB time=00:00:01.76 bitrate=1187.3kbits/s speed=0.0135x elapsed=0:02:10.81    \nframe=  108 fps=0.8 q=45.9 size=     256KiB time=00:00:01.76 bitrate=1187.3kbits/s speed=0.0134x elapsed=0:02:11.35    \nframe=  109 fps=0.8 q=46.9 size=     256KiB time=00:00:01.78 bitrate=1176.2kbits/s speed=0.0135x elapsed=0:02:11.87    \nframe=  110 fps=0.8 q=46.9 size=     256KiB time=00:00:01.80 bitrate=1165.3kbits/s speed=0.0136x elapsed=0:02:12.41    \nframe=  110 fps=0.8 q=46.9 size=     256KiB time=00:00:01.80 bitrate=1165.3kbits/s speed=0.0135x elapsed=0:02:12.95    \nframe=  110 fps=0.8 q=46.9 size=     256KiB time=00:00:01.80 bitrate=1165.3kbits/s speed=0.0135x elapsed=0:02:13.50    \nframe=  110 fps=0.8 q=46.9 size=     256KiB time=00:00:01.80 bitrate=1165.3kbits/s speed=0.0134x elapsed=0:02:14.04    \nframe=  111 fps=0.8 q=47.0 size=     256KiB time=00:00:01.81 bitrate=1154.6kbits/s speed=0.0135x elapsed=0:02:14.58    \nframe=  111 fps=0.8 q=47.0 size=     256KiB time=00:00:01.81 bitrate=1154.6kbits/s speed=0.0134x elapsed=0:02:15.12    \nframe=  111 fps=0.8 q=47.0 size=     256KiB time=00:00:01.81 bitrate=1154.6kbits/s speed=0.0134x elapsed=0:02:15.65    \nframe=  111 fps=0.8 q=47.0 size=     256KiB time=00:00:01.81 bitrate=1154.6kbits/s speed=0.0133x elapsed=0:02:16.22    \nframe=  113 fps=0.8 q=45.9 size=     256KiB time=00:00:01.85 bitrate=1133.8kbits/s speed=0.0135x elapsed=0:02:16.76    \nframe=  113 fps=0.8 q=45.9 size=     256KiB time=00:00:01.85 bitrate=1133.8kbits/s speed=0.0135x elapsed=0:02:17.32    \nframe=  113 fps=0.8 q=45.9 size=     256KiB time=00:00:01.85 bitrate=1133.8kbits/s speed=0.0134x elapsed=0:02:17.87    \nframe=  114 fps=0.8 q=47.0 size=     256KiB time=00:00:01.86 bitrate=1123.7kbits/s speed=0.0135x elapsed=0:02:18.40    \nframe=  114 fps=0.8 q=47.0 size=     256KiB time=00:00:01.86 bitrate=1123.7kbits/s speed=0.0134x elapsed=0:02:18.93    \nframe=  114 fps=0.8 q=47.0 size=     256KiB time=00:00:01.86 bitrate=1123.7kbits/s speed=0.0134x elapsed=0:02:19.49    \nframe=  114 fps=0.8 q=47.0 size=     256KiB time=00:00:01.86 bitrate=1123.7kbits/s speed=0.0133x elapsed=0:02:20.03    \nframe=  114 fps=0.8 q=47.0 size=     256KiB time=00:00:01.86 bitrate=1123.7kbits/s speed=0.0133x elapsed=0:02:20.57    \nframe=  115 fps=0.8 q=46.8 size=     256KiB time=00:00:01.88 bitrate=1113.7kbits/s speed=0.0133x elapsed=0:02:21.11    \nframe=  115 fps=0.8 q=46.8 size=     256KiB time=00:00:01.88 bitrate=1113.7kbits/s speed=0.0133x elapsed=0:02:21.65    \nframe=  116 fps=0.8 q=46.8 size=     256KiB time=00:00:01.90 bitrate=1103.9kbits/s speed=0.0134x elapsed=0:02:22.17    \nframe=  116 fps=0.8 q=46.8 size=     256KiB time=00:00:01.90 bitrate=1103.9kbits/s speed=0.0133x elapsed=0:02:22.76    \nframe=  116 fps=0.8 q=46.8 size=     256KiB time=00:00:01.90 bitrate=1103.9kbits/s speed=0.0133x elapsed=0:02:23.33    \nframe=  117 fps=0.8 q=40.4 size=     256KiB time=00:00:01.91 bitrate=1094.3kbits/s speed=0.0133x elapsed=0:02:23.91    \nframe=  117 fps=0.8 q=40.4 size=     256KiB time=00:00:01.91 bitrate=1094.3kbits/s speed=0.0133x elapsed=0:02:24.50    \nframe=  117 fps=0.8 q=40.4 size=     256KiB time=00:00:01.91 bitrate=1094.3kbits/s speed=0.0132x elapsed=0:02:25.03    \nframe=  119 fps=0.8 q=46.9 size=     256KiB time=00:00:01.93 bitrate=1084.9kbits/s speed=0.0133x elapsed=0:02:25.57    \nframe=  119 fps=0.8 q=46.9 size=     256KiB time=00:00:01.95 bitrate=1075.6kbits/s speed=0.0133x elapsed=0:02:26.09    \nframe=  119 fps=0.8 q=46.9 size=     256KiB time=00:00:01.95 bitrate=1075.6kbits/s speed=0.0133x elapsed=0:02:26.63    \nframe=  120 fps=0.8 q=46.7 size=     256KiB time=00:00:01.96 bitrate=1066.5kbits/s speed=0.0134x elapsed=0:02:27.23    \nframe=  120 fps=0.8 q=46.7 size=     256KiB time=00:00:01.96 bitrate=1066.5kbits/s speed=0.0133x elapsed=0:02:27.85    \nframe=  120 fps=0.8 q=46.7 size=     256KiB time=00:00:01.96 bitrate=1066.5kbits/s speed=0.0132x elapsed=0:02:28.47    \nframe=  120 fps=0.8 q=46.7 size=     256KiB time=00:00:01.96 bitrate=1066.5kbits/s speed=0.0132x elapsed=0:02:29.05    \nframe=  120 fps=0.8 q=46.7 size=     256KiB time=00:00:01.96 bitrate=1066.5kbits/s speed=0.0131x elapsed=0:02:29.64    \nframe=  120 fps=0.8 q=46.7 size=     256KiB time=00:00:01.96 bitrate=1066.5kbits/s speed=0.0131x elapsed=0:02:30.29    \nframe=  121 fps=0.8 q=46.7 size=     256KiB time=00:00:01.98 bitrate=1057.6kbits/s speed=0.0132x elapsed=0:02:30.82    \nframe=  123 fps=0.8 q=45.7 size=     256KiB time=00:00:02.01 bitrate=1040.1kbits/s speed=0.0133x elapsed=0:02:31.34    \nframe=  124 fps=0.8 q=47.2 size=     256KiB time=00:00:02.03 bitrate=1031.6kbits/s speed=0.0134x elapsed=0:02:31.87    \nframe=  124 fps=0.8 q=47.2 size=     256KiB time=00:00:02.03 bitrate=1031.6kbits/s speed=0.0133x elapsed=0:02:32.42    \nframe=  124 fps=0.8 q=47.2 size=     256KiB time=00:00:02.03 bitrate=1031.6kbits/s speed=0.0133x elapsed=0:02:32.94    \nframe=  124 fps=0.8 q=47.2 size=     256KiB time=00:00:02.03 bitrate=1031.6kbits/s speed=0.0132x elapsed=0:02:33.50    \nframe=  124 fps=0.8 q=47.2 size=     256KiB time=00:00:02.03 bitrate=1031.6kbits/s speed=0.0132x elapsed=0:02:34.05    \nframe=  124 fps=0.8 q=47.2 size=     256KiB time=00:00:02.03 bitrate=1031.6kbits/s speed=0.0131x elapsed=0:02:34.63    \nframe=  126 fps=0.8 q=46.5 size=     256KiB time=00:00:02.06 bitrate=1014.9kbits/s speed=0.0133x elapsed=0:02:35.20    \nframe=  127 fps=0.8 q=40.3 size=     256KiB time=00:00:02.08 bitrate=1006.8kbits/s speed=0.0134x elapsed=0:02:35.75    \nframe=  127 fps=0.8 q=40.3 size=     256KiB time=00:00:02.08 bitrate=1006.8kbits/s speed=0.0133x elapsed=0:02:36.30    \nframe=  127 fps=0.8 q=40.3 size=     256KiB time=00:00:02.08 bitrate=1006.8kbits/s speed=0.0133x elapsed=0:02:36.84    \nframe=  127 fps=0.8 q=40.3 size=     256KiB time=00:00:02.08 bitrate=1006.8kbits/s speed=0.0132x elapsed=0:02:37.39    \nframe=  127 fps=0.8 q=40.3 size=     256KiB time=00:00:02.08 bitrate=1006.8kbits/s speed=0.0132x elapsed=0:02:37.99    \nframe=  128 fps=0.8 q=45.7 size=     256KiB time=00:00:02.10 bitrate= 998.8kbits/s speed=0.0132x elapsed=0:02:38.61    \nframe=  129 fps=0.8 q=46.7 size=     256KiB time=00:00:02.11 bitrate= 990.9kbits/s speed=0.0133x elapsed=0:02:39.20    \nframe=  129 fps=0.8 q=46.7 size=     256KiB time=00:00:02.11 bitrate= 990.9kbits/s speed=0.0132x elapsed=0:02:39.76    \nframe=  129 fps=0.8 q=46.7 size=     256KiB time=00:00:02.11 bitrate= 990.9kbits/s speed=0.0132x elapsed=0:02:40.33    \nframe=  129 fps=0.8 q=46.7 size=     256KiB time=00:00:02.11 bitrate= 990.9kbits/s speed=0.0131x elapsed=0:02:40.97    \nframe=  129 fps=0.8 q=46.7 size=     256KiB time=00:00:02.11 bitrate= 990.9kbits/s speed=0.0131x elapsed=0:02:41.60    \nframe=  129 fps=0.8 q=46.7 size=     256KiB time=00:00:02.11 bitrate= 990.9kbits/s speed=0.013x elapsed=0:02:42.27    \nframe=  129 fps=0.8 q=46.7 size=     256KiB time=00:00:02.11 bitrate= 990.9kbits/s speed=0.013x elapsed=0:02:42.94    \nframe=  130 fps=0.8 q=46.4 size=     256KiB time=00:00:02.11 bitrate= 990.9kbits/s speed=0.0129x elapsed=0:02:43.51    \nframe=  130 fps=0.8 q=46.4 size=     256KiB time=00:00:02.13 bitrate= 983.2kbits/s speed=0.013x elapsed=0:02:44.15    \nframe=  130 fps=0.8 q=46.4 size=     256KiB time=00:00:02.13 bitrate= 983.2kbits/s speed=0.0129x elapsed=0:02:44.79    \nframe=  130 fps=0.8 q=46.4 size=     256KiB time=00:00:02.13 bitrate= 983.2kbits/s speed=0.0129x elapsed=0:02:45.41    \nframe=  130 fps=0.8 q=46.4 size=     256KiB time=00:00:02.13 bitrate= 983.2kbits/s speed=0.0129x elapsed=0:02:46.01    \nframe=  131 fps=0.8 q=46.6 size=     256KiB time=00:00:02.15 bitrate= 975.6kbits/s speed=0.0129x elapsed=0:02:46.67    \nframe=  131 fps=0.8 q=46.6 size=     256KiB time=00:00:02.15 bitrate= 975.6kbits/s speed=0.0129x elapsed=0:02:47.24    \nframe=  131 fps=0.8 q=46.6 size=     256KiB time=00:00:02.15 bitrate= 975.6kbits/s speed=0.0128x elapsed=0:02:47.83    \nframe=  131 fps=0.8 q=46.6 size=     256KiB time=00:00:02.15 bitrate= 975.6kbits/s speed=0.0128x elapsed=0:02:48.35    \nframe=  133 fps=0.8 q=45.4 size=     512KiB time=00:00:02.18 bitrate=1921.2kbits/s speed=0.0129x elapsed=0:02:48.95    \nframe=  133 fps=0.8 q=45.4 size=     512KiB time=00:00:02.18 bitrate=1921.2kbits/s speed=0.0129x elapsed=0:02:49.50    \nframe=  133 fps=0.8 q=45.4 size=     512KiB time=00:00:02.18 bitrate=1921.2kbits/s speed=0.0128x elapsed=0:02:50.06    \nframe=  133 fps=0.8 q=45.4 size=     512KiB time=00:00:02.18 bitrate=1921.2kbits/s speed=0.0128x elapsed=0:02:50.59    \nframe=  133 fps=0.8 q=45.4 size=     512KiB time=00:00:02.18 bitrate=1921.2kbits/s speed=0.0128x elapsed=0:02:51.12    \nframe=  134 fps=0.8 q=46.9 size=     512KiB time=00:00:02.20 bitrate=1906.7kbits/s speed=0.0128x elapsed=0:02:51.69    \nframe=  134 fps=0.8 q=46.9 size=     512KiB time=00:00:02.20 bitrate=1906.7kbits/s speed=0.0128x elapsed=0:02:52.21    \nframe=  135 fps=0.8 q=46.3 size=     512KiB time=00:00:02.21 bitrate=1892.3kbits/s speed=0.0128x elapsed=0:02:52.75    \nframe=  135 fps=0.8 q=46.3 size=     512KiB time=00:00:02.21 bitrate=1892.3kbits/s speed=0.0128x elapsed=0:02:53.28    \nframe=  136 fps=0.8 q=46.4 size=     512KiB time=00:00:02.23 bitrate=1878.2kbits/s speed=0.0128x elapsed=0:02:53.80    \nframe=  136 fps=0.8 q=46.4 size=     512KiB time=00:00:02.23 bitrate=1878.2kbits/s speed=0.0128x elapsed=0:02:54.34    \nframe=  137 fps=0.8 q=40.3 size=     512KiB time=00:00:02.25 bitrate=1864.3kbits/s speed=0.0129x elapsed=0:02:54.87    \nframe=  137 fps=0.8 q=40.3 size=     512KiB time=00:00:02.25 bitrate=1864.3kbits/s speed=0.0128x elapsed=0:02:55.46    \nframe=  138 fps=0.8 q=45.5 size=     512KiB time=00:00:02.26 bitrate=1850.6kbits/s speed=0.0129x elapsed=0:02:56.08    \nframe=  138 fps=0.8 q=45.5 size=     512KiB time=00:00:02.26 bitrate=1850.6kbits/s speed=0.0128x elapsed=0:02:56.61    \nframe=  138 fps=0.8 q=45.5 size=     512KiB time=00:00:02.26 bitrate=1850.6kbits/s speed=0.0128x elapsed=0:02:57.15    \nframe=  138 fps=0.8 q=45.5 size=     512KiB time=00:00:02.26 bitrate=1850.6kbits/s speed=0.0128x elapsed=0:02:57.70    \nframe=  139 fps=0.8 q=46.7 size=     512KiB time=00:00:02.28 bitrate=1837.1kbits/s speed=0.0128x elapsed=0:02:58.26    \nframe=  139 fps=0.8 q=46.7 size=     512KiB time=00:00:02.28 bitrate=1837.1kbits/s speed=0.0128x elapsed=0:02:58.78    \nframe=  140 fps=0.8 q=46.3 size=     512KiB time=00:00:02.30 bitrate=1823.8kbits/s speed=0.0128x elapsed=0:02:59.30    \nframe=  140 fps=0.8 q=46.3 size=     512KiB time=00:00:02.30 bitrate=1823.8kbits/s speed=0.0128x elapsed=0:02:59.86    \nframe=  141 fps=0.8 q=46.1 size=     512KiB time=00:00:02.31 bitrate=1810.6kbits/s speed=0.0128x elapsed=0:03:00.40    \nframe=  141 fps=0.8 q=46.1 size=     512KiB time=00:00:02.31 bitrate=1810.6kbits/s speed=0.0128x elapsed=0:03:00.93    \nframe=  142 fps=0.8 q=39.9 size=     512KiB time=00:00:02.33 bitrate=1797.7kbits/s speed=0.0129x elapsed=0:03:01.45    \nframe=  142 fps=0.8 q=39.9 size=     512KiB time=00:00:02.33 bitrate=1797.7kbits/s speed=0.0128x elapsed=0:03:02.02    \nframe=  143 fps=0.8 q=45.5 size=     512KiB time=00:00:02.35 bitrate=1785.0kbits/s speed=0.0129x elapsed=0:03:02.55    \nframe=  143 fps=0.8 q=45.5 size=     512KiB time=00:00:02.35 bitrate=1785.0kbits/s speed=0.0128x elapsed=0:03:03.10    \nframe=  143 fps=0.8 q=45.5 size=     512KiB time=00:00:02.35 bitrate=1785.0kbits/s speed=0.0128x elapsed=0:03:03.61    \nframe=  143 fps=0.8 q=45.5 size=     512KiB time=00:00:02.35 bitrate=1785.0kbits/s speed=0.0128x elapsed=0:03:04.14    \nframe=  144 fps=0.8 q=46.6 size=     512KiB time=00:00:02.36 bitrate=1772.4kbits/s speed=0.0128x elapsed=0:03:04.69    \nframe=  144 fps=0.8 q=46.6 size=     512KiB time=00:00:02.36 bitrate=1772.4kbits/s speed=0.0128x elapsed=0:03:05.23    \nframe=  144 fps=0.8 q=46.6 size=     512KiB time=00:00:02.36 bitrate=1772.4kbits/s speed=0.0127x elapsed=0:03:05.79    \nframe=  146 fps=0.8 q=46.6 size=     512KiB time=00:00:02.40 bitrate=1747.8kbits/s speed=0.0129x elapsed=0:03:06.31    \nframe=  146 fps=0.8 q=46.6 size=     512KiB time=00:00:02.40 bitrate=1747.8kbits/s speed=0.0128x elapsed=0:03:06.84    \nframe=  146 fps=0.8 q=46.6 size=     512KiB time=00:00:02.40 bitrate=1747.8kbits/s speed=0.0128x elapsed=0:03:07.45    \nframe=  147 fps=0.8 q=40.2 size=     512KiB time=00:00:02.41 bitrate=1735.7kbits/s speed=0.0129x elapsed=0:03:08.05    \nframe=  147 fps=0.8 q=40.2 size=     512KiB time=00:00:02.41 bitrate=1735.7kbits/s speed=0.0128x elapsed=0:03:08.62    \nframe=  147 fps=0.8 q=40.2 size=     512KiB time=00:00:02.41 bitrate=1735.7kbits/s speed=0.0128x elapsed=0:03:09.23    \nframe=  148 fps=0.8 q=45.6 size=     512KiB time=00:00:02.43 bitrate=1723.8kbits/s speed=0.0128x elapsed=0:03:09.81    \nframe=  148 fps=0.8 q=45.6 size=     512KiB time=00:00:02.43 bitrate=1723.8kbits/s speed=0.0128x elapsed=0:03:10.38    \nframe=  149 fps=0.8 q=46.7 size=     512KiB time=00:00:02.45 bitrate=1712.1kbits/s speed=0.0128x elapsed=0:03:10.90    \nframe=  149 fps=0.8 q=46.7 size=     512KiB time=00:00:02.45 bitrate=1712.1kbits/s speed=0.0128x elapsed=0:03:11.42    \nframe=  149 fps=0.8 q=46.7 size=     512KiB time=00:00:02.45 bitrate=1712.1kbits/s speed=0.0128x elapsed=0:03:11.96    \nframe=  150 fps=0.8 q=46.5 size=     512KiB time=00:00:02.46 bitrate=1700.5kbits/s speed=0.0128x elapsed=0:03:12.49    \nframe=  150 fps=0.8 q=46.5 size=     512KiB time=00:00:02.46 bitrate=1700.5kbits/s speed=0.0128x elapsed=0:03:13.02    \nframe=  150 fps=0.8 q=46.5 size=     512KiB time=00:00:02.46 bitrate=1700.5kbits/s speed=0.0127x elapsed=0:03:13.56    \nframe=  151 fps=0.8 q=46.8 size=     512KiB time=00:00:02.48 bitrate=1689.1kbits/s speed=0.0128x elapsed=0:03:14.11    \nframe=  151 fps=0.8 q=46.8 size=     512KiB time=00:00:02.48 bitrate=1689.1kbits/s speed=0.0128x elapsed=0:03:14.65    \nframe=  151 fps=0.8 q=46.8 size=     512KiB time=00:00:02.48 bitrate=1689.1kbits/s speed=0.0127x elapsed=0:03:15.22    \nframe=  151 fps=0.8 q=46.8 size=     512KiB time=00:00:02.48 bitrate=1689.1kbits/s speed=0.0127x elapsed=0:03:15.75    \nframe=  152 fps=0.8 q=39.8 size=     512KiB time=00:00:02.50 bitrate=1677.9kbits/s speed=0.0127x elapsed=0:03:16.30    \nframe=  152 fps=0.8 q=39.8 size=     512KiB time=00:00:02.50 bitrate=1677.9kbits/s speed=0.0127x elapsed=0:03:16.86    \nframe=  153 fps=0.8 q=45.4 size=     512KiB time=00:00:02.51 bitrate=1666.8kbits/s speed=0.0127x elapsed=0:03:17.49    \nframe=  153 fps=0.8 q=45.4 size=     512KiB time=00:00:02.51 bitrate=1666.8kbits/s speed=0.0127x elapsed=0:03:18.07    \nframe=  153 fps=0.8 q=45.4 size=     512KiB time=00:00:02.51 bitrate=1666.8kbits/s speed=0.0127x elapsed=0:03:18.58    \nframe=  153 fps=0.8 q=45.4 size=     512KiB time=00:00:02.51 bitrate=1666.8kbits/s speed=0.0126x elapsed=0:03:19.09    \nframe=  154 fps=0.8 q=46.6 size=     512KiB time=00:00:02.53 bitrate=1655.8kbits/s speed=0.0127x elapsed=0:03:19.63    \nframe=  154 fps=0.8 q=46.6 size=     512KiB time=00:00:02.53 bitrate=1655.8kbits/s speed=0.0127x elapsed=0:03:20.22    \nframe=  154 fps=0.8 q=46.6 size=     512KiB time=00:00:02.53 bitrate=1655.8kbits/s speed=0.0126x elapsed=0:03:20.75    \nframe=  155 fps=0.8 q=46.4 size=     512KiB time=00:00:02.55 bitrate=1645.0kbits/s speed=0.0127x elapsed=0:03:21.30    \nframe=  156 fps=0.8 q=46.2 size=     512KiB time=00:00:02.56 bitrate=1634.3kbits/s speed=0.0127x elapsed=0:03:21.87    \nframe=  157 fps=0.8 q=40.0 size=     512KiB time=00:00:02.58 bitrate=1623.7kbits/s speed=0.0128x elapsed=0:03:22.40    \nframe=  158 fps=0.8 q=45.2 size=     512KiB time=00:00:02.60 bitrate=1613.3kbits/s speed=0.0128x elapsed=0:03:22.96    \nframe=  158 fps=0.8 q=45.2 size=     512KiB time=00:00:02.60 bitrate=1613.3kbits/s speed=0.0128x elapsed=0:03:23.50    \nframe=  158 fps=0.8 q=45.2 size=     512KiB time=00:00:02.60 bitrate=1613.3kbits/s speed=0.0127x elapsed=0:03:24.05    \nframe=  158 fps=0.8 q=45.2 size=     512KiB time=00:00:02.60 bitrate=1613.3kbits/s speed=0.0127x elapsed=0:03:24.60    \nframe=  159 fps=0.8 q=46.7 size=     512KiB time=00:00:02.61 bitrate=1603.1kbits/s speed=0.0128x elapsed=0:03:25.18    \nframe=  160 fps=0.8 q=46.2 size=     512KiB time=00:00:02.63 bitrate=1592.9kbits/s speed=0.0128x elapsed=0:03:25.71    \nframe=  161 fps=0.8 q=46.6 size=     512KiB time=00:00:02.65 bitrate=1582.9kbits/s speed=0.0128x elapsed=0:03:26.26    \nframe=  161 fps=0.8 q=46.6 size=     512KiB time=00:00:02.65 bitrate=1582.9kbits/s speed=0.0128x elapsed=0:03:26.80    \nframe=  161 fps=0.8 q=46.6 size=     512KiB time=00:00:02.65 bitrate=1582.9kbits/s speed=0.0128x elapsed=0:03:27.35    \nframe=  161 fps=0.8 q=46.6 size=     512KiB time=00:00:02.65 bitrate=1582.9kbits/s speed=0.0127x elapsed=0:03:27.89    \nframe=  161 fps=0.8 q=46.6 size=     512KiB time=00:00:02.65 bitrate=1582.9kbits/s speed=0.0127x elapsed=0:03:28.46    \nframe=  161 fps=0.8 q=46.6 size=     512KiB time=00:00:02.65 bitrate=1582.9kbits/s speed=0.0127x elapsed=0:03:29.04    \nframe=  161 fps=0.8 q=46.6 size=     512KiB time=00:00:02.65 bitrate=1582.9kbits/s speed=0.0126x elapsed=0:03:29.55    \nframe=  161 fps=0.8 q=46.6 size=     512KiB time=00:00:02.65 bitrate=1582.9kbits/s speed=0.0126x elapsed=0:03:30.10    \nframe=  162 fps=0.8 q=40.5 size=     512KiB time=00:00:02.66 bitrate=1573.0kbits/s speed=0.0127x elapsed=0:03:30.70    \nframe=  162 fps=0.8 q=40.5 size=     512KiB time=00:00:02.66 bitrate=1573.0kbits/s speed=0.0126x elapsed=0:03:31.25    \nframe=  163 fps=0.8 q=45.2 size=     512KiB time=00:00:02.68 bitrate=1563.2kbits/s speed=0.0127x elapsed=0:03:31.77    \nframe=  164 fps=0.8 q=47.0 size=     512KiB time=00:00:02.70 bitrate=1553.6kbits/s speed=0.0127x elapsed=0:03:32.33    \nframe=  164 fps=0.8 q=47.0 size=     512KiB time=00:00:02.70 bitrate=1553.6kbits/s speed=0.0127x elapsed=0:03:32.88    \nframe=  165 fps=0.8 q=46.3 size=     512KiB time=00:00:02.71 bitrate=1544.0kbits/s speed=0.0127x elapsed=0:03:33.41    \nframe=  165 fps=0.8 q=46.3 size=     512KiB time=00:00:02.71 bitrate=1544.0kbits/s speed=0.0127x elapsed=0:03:33.93    \nframe=  165 fps=0.8 q=46.3 size=     512KiB time=00:00:02.71 bitrate=1544.0kbits/s speed=0.0127x elapsed=0:03:34.46    \nframe=  165 fps=0.8 q=46.3 size=     512KiB time=00:00:02.71 bitrate=1544.0kbits/s speed=0.0126x elapsed=0:03:34.97    \nframe=  165 fps=0.8 q=46.3 size=     512KiB time=00:00:02.71 bitrate=1544.0kbits/s speed=0.0126x elapsed=0:03:35.51    \nframe=  165 fps=0.8 q=46.3 size=     512KiB time=00:00:02.71 bitrate=1544.0kbits/s speed=0.0126x elapsed=0:03:36.07    \nframe=  166 fps=0.8 q=46.2 size=     512KiB time=00:00:02.73 bitrate=1534.6kbits/s speed=0.0126x elapsed=0:03:36.63    \nframe=  167 fps=0.8 q=40.0 size=     512KiB time=00:00:02.75 bitrate=1525.3kbits/s speed=0.0127x elapsed=0:03:37.18    \nframe=  167 fps=0.8 q=40.0 size=     512KiB time=00:00:02.75 bitrate=1525.3kbits/s speed=0.0126x elapsed=0:03:37.74    \nframe=  167 fps=0.8 q=40.0 size=     512KiB time=00:00:02.75 bitrate=1525.3kbits/s speed=0.0126x elapsed=0:03:38.32    \nframe=  168 fps=0.8 q=45.1 size=     512KiB time=00:00:02.76 bitrate=1516.1kbits/s speed=0.0126x elapsed=0:03:38.85    \nframe=  168 fps=0.8 q=45.1 size=     512KiB time=00:00:02.76 bitrate=1516.1kbits/s speed=0.0126x elapsed=0:03:39.40    \nframe=  168 fps=0.8 q=45.1 size=     512KiB time=00:00:02.76 bitrate=1516.1kbits/s speed=0.0126x elapsed=0:03:39.99    \nframe=  168 fps=0.8 q=45.1 size=     512KiB time=00:00:02.76 bitrate=1516.1kbits/s speed=0.0125x elapsed=0:03:40.61    \nframe=  169 fps=0.8 q=46.3 size=     512KiB time=00:00:02.78 bitrate=1507.1kbits/s speed=0.0126x elapsed=0:03:41.14    \nframe=  169 fps=0.8 q=46.3 size=     512KiB time=00:00:02.78 bitrate=1507.1kbits/s speed=0.0126x elapsed=0:03:41.74    \nframe=  169 fps=0.8 q=46.3 size=     512KiB time=00:00:02.78 bitrate=1507.1kbits/s speed=0.0125x elapsed=0:03:42.39    \nframe=  169 fps=0.8 q=46.3 size=     512KiB time=00:00:02.78 bitrate=1507.1kbits/s speed=0.0125x elapsed=0:03:43.04    \nframe=  169 fps=0.8 q=46.3 size=     512KiB time=00:00:02.78 bitrate=1507.1kbits/s speed=0.0124x elapsed=0:03:43.63    \nframe=  169 fps=0.8 q=46.3 size=     512KiB time=00:00:02.78 bitrate=1507.1kbits/s speed=0.0124x elapsed=0:03:44.20    \nframe=  169 fps=0.8 q=46.3 size=     512KiB time=00:00:02.78 bitrate=1507.1kbits/s speed=0.0124x elapsed=0:03:44.77    \nframe=  169 fps=0.7 q=46.3 size=     512KiB time=00:00:02.78 bitrate=1507.1kbits/s speed=0.0123x elapsed=0:03:45.37    \nframe=  169 fps=0.7 q=46.3 size=     512KiB time=00:00:02.78 bitrate=1507.1kbits/s speed=0.0123x elapsed=0:03:46.06    \nframe=  169 fps=0.7 q=46.3 size=     512KiB time=00:00:02.78 bitrate=1507.1kbits/s speed=0.0123x elapsed=0:03:46.63    \nframe=  169 fps=0.7 q=46.3 size=     512KiB time=00:00:02.78 bitrate=1507.1kbits/s speed=0.0122x elapsed=0:03:47.26    \nframe=  170 fps=0.7 q=46.1 size=     512KiB time=00:00:02.80 bitrate=1498.1kbits/s speed=0.0123x elapsed=0:03:47.82    \nframe=  170 fps=0.7 q=46.1 size=     512KiB time=00:00:02.80 bitrate=1498.1kbits/s speed=0.0123x elapsed=0:03:48.35    \nframe=  170 fps=0.7 q=46.1 size=     512KiB time=00:00:02.80 bitrate=1498.1kbits/s speed=0.0122x elapsed=0:03:48.90    \nframe=  170 fps=0.7 q=46.1 size=     512KiB time=00:00:02.80 bitrate=1498.1kbits/s speed=0.0122x elapsed=0:03:49.47    \nframe=  171 fps=0.7 q=46.0 size=     512KiB time=00:00:02.81 bitrate=1489.2kbits/s speed=0.0122x elapsed=0:03:49.98    \nframe=  171 fps=0.7 q=46.0 size=     512KiB time=00:00:02.81 bitrate=1489.2kbits/s speed=0.0122x elapsed=0:03:50.51    \nframe=  172 fps=0.7 q=40.2 size=     512KiB time=00:00:02.83 bitrate=1480.5kbits/s speed=0.0123x elapsed=0:03:51.03    \nframe=  172 fps=0.7 q=40.2 size=     512KiB time=00:00:02.83 bitrate=1480.5kbits/s speed=0.0122x elapsed=0:03:51.58    \nframe=  173 fps=0.7 q=45.0 size=     512KiB time=00:00:02.85 bitrate=1471.8kbits/s speed=0.0123x elapsed=0:03:52.09    \nframe=  174 fps=0.7 q=46.2 size=     512KiB time=00:00:02.86 bitrate=1463.3kbits/s speed=0.0123x elapsed=0:03:52.62    \nframe=  174 fps=0.7 q=46.2 size=     512KiB time=00:00:02.86 bitrate=1463.3kbits/s speed=0.0123x elapsed=0:03:53.14    \nframe=  175 fps=0.7 q=45.9 size=     512KiB time=00:00:02.88 bitrate=1454.8kbits/s speed=0.0123x elapsed=0:03:53.65    \nframe=  176 fps=0.8 q=46.2 size=     512KiB time=00:00:02.90 bitrate=1446.4kbits/s speed=0.0124x elapsed=0:03:54.17    \nframe=  176 fps=0.7 q=46.2 size=     512KiB time=00:00:02.90 bitrate=1446.4kbits/s speed=0.0124x elapsed=0:03:54.69    \nframe=  177 fps=0.8 q=39.4 size=     512KiB time=00:00:02.91 bitrate=1438.2kbits/s speed=0.0124x elapsed=0:03:55.21    \nframe=  179 fps=0.8 q=46.5 size=     512KiB time=00:00:02.93 bitrate=1430.0kbits/s speed=0.0124x elapsed=0:03:55.73    \nframe=  179 fps=0.8 q=46.5 size=     512KiB time=00:00:02.95 bitrate=1421.9kbits/s speed=0.0125x elapsed=0:03:56.26    \nframe=  179 fps=0.8 q=46.5 size=     512KiB time=00:00:02.95 bitrate=1421.9kbits/s speed=0.0125x elapsed=0:03:56.78    \nframe=  180 fps=0.8 q=45.9 size=     512KiB time=00:00:02.96 bitrate=1413.9kbits/s speed=0.0125x elapsed=0:03:57.30    \nframe=  181 fps=0.8 q=46.0 size=     512KiB time=00:00:02.98 bitrate=1406.0kbits/s speed=0.0125x elapsed=0:03:57.82    \nframe=  182 fps=0.8 q=39.6 size=     512KiB time=00:00:03.00 bitrate=1398.2kbits/s speed=0.0126x elapsed=0:03:58.33    \nframe=  183 fps=0.8 q=44.9 size=     512KiB time=00:00:03.01 bitrate=1390.5kbits/s speed=0.0126x elapsed=0:03:58.86    \nframe=  184 fps=0.8 q=46.2 size=     512KiB time=00:00:03.03 bitrate=1382.9kbits/s speed=0.0127x elapsed=0:03:59.38    \nframe=  185 fps=0.8 q=45.7 size=     512KiB time=00:00:03.05 bitrate=1375.3kbits/s speed=0.0127x elapsed=0:03:59.91    \nframe=  187 fps=0.8 q=39.7 size=     512KiB time=00:00:03.08 bitrate=1360.4kbits/s speed=0.0128x elapsed=0:04:00.41    \nframe=  188 fps=0.8 q=44.7 size=     512KiB time=00:00:03.10 bitrate=1353.1kbits/s speed=0.0129x elapsed=0:04:00.94    \nframe=  189 fps=0.8 q=46.2 size=     512KiB time=00:00:03.11 bitrate=1345.9kbits/s speed=0.0129x elapsed=0:04:01.45    \nframe=  189 fps=0.8 q=46.2 size=     512KiB time=00:00:03.11 bitrate=1345.9kbits/s speed=0.0129x elapsed=0:04:01.99    \nframe=  189 fps=0.8 q=46.2 size=     512KiB time=00:00:03.11 bitrate=1345.9kbits/s speed=0.0129x elapsed=0:04:02.51    \nframe=  189 fps=0.8 q=46.2 size=     512KiB time=00:00:03.11 bitrate=1345.9kbits/s speed=0.0128x elapsed=0:04:03.04    \nframe=  191 fps=0.8 q=45.9 size=     512KiB time=00:00:03.15 bitrate=1331.6kbits/s speed=0.0129x elapsed=0:04:03.56    \nframe=  192 fps=0.8 q=39.3 size=     512KiB time=00:00:03.16 bitrate=1324.6kbits/s speed=0.013x elapsed=0:04:04.09    \nframe=  193 fps=0.8 q=44.6 size=     512KiB time=00:00:03.18 bitrate=1317.7kbits/s speed=0.013x elapsed=0:04:04.61    \nframe=  193 fps=0.8 q=44.6 size=     512KiB time=00:00:03.18 bitrate=1317.7kbits/s speed=0.013x elapsed=0:04:05.14    \nframe=  194 fps=0.8 q=45.7 size=     512KiB time=00:00:03.20 bitrate=1310.8kbits/s speed=0.013x elapsed=0:04:05.67    \nframe=  194 fps=0.8 q=45.7 size=     512KiB time=00:00:03.20 bitrate=1310.8kbits/s speed=0.013x elapsed=0:04:06.20    \nframe=  195 fps=0.8 q=45.7 size=     512KiB time=00:00:03.21 bitrate=1304.0kbits/s speed=0.013x elapsed=0:04:06.73    \nframe=  196 fps=0.8 q=45.5 size=     768KiB time=00:00:03.23 bitrate=1945.9kbits/s speed=0.0131x elapsed=0:04:07.24    \nframe=  198 fps=0.8 q=44.6 size=     768KiB time=00:00:03.26 bitrate=1926.1kbits/s speed=0.0132x elapsed=0:04:07.77    \nframe=  198 fps=0.8 q=44.6 size=     768KiB time=00:00:03.26 bitrate=1926.1kbits/s speed=0.0132x elapsed=0:04:08.31    \nframe=  198 fps=0.8 q=44.6 size=     768KiB time=00:00:03.26 bitrate=1926.1kbits/s speed=0.0131x elapsed=0:04:08.82    \nframe=  200 fps=0.8 q=45.4 size=     768KiB time=00:00:03.30 bitrate=1906.6kbits/s speed=0.0132x elapsed=0:04:09.35    \nframe=  200 fps=0.8 q=45.4 size=     768KiB time=00:00:03.30 bitrate=1906.6kbits/s speed=0.0132x elapsed=0:04:09.89    \nframe=  200 fps=0.8 q=45.4 size=     768KiB time=00:00:03.30 bitrate=1906.6kbits/s speed=0.0132x elapsed=0:04:10.43    \nframe=  200 fps=0.8 q=45.4 size=     768KiB time=00:00:03.30 bitrate=1906.6kbits/s speed=0.0131x elapsed=0:04:11.10    \nframe=  200 fps=0.8 q=45.4 size=     768KiB time=00:00:03.30 bitrate=1906.6kbits/s speed=0.0131x elapsed=0:04:11.72    \nframe=  200 fps=0.8 q=45.4 size=     768KiB time=00:00:03.30 bitrate=1906.6kbits/s speed=0.0131x elapsed=0:04:12.28    \nframe=  201 fps=0.8 q=45.2 size=     768KiB time=00:00:03.31 bitrate=1897.0kbits/s speed=0.0131x elapsed=0:04:12.82    \nframe=  202 fps=0.8 q=39.5 size=     768KiB time=00:00:03.33 bitrate=1887.5kbits/s speed=0.0132x elapsed=0:04:13.34    \nframe=  203 fps=0.8 q=44.7 size=     768KiB time=00:00:03.35 bitrate=1878.2kbits/s speed=0.0132x elapsed=0:04:13.86    \nframe=  203 fps=0.8 q=44.7 size=     768KiB time=00:00:03.35 bitrate=1878.2kbits/s speed=0.0132x elapsed=0:04:14.42    \nframe=  203 fps=0.8 q=44.7 size=     768KiB time=00:00:03.35 bitrate=1878.2kbits/s speed=0.0131x elapsed=0:04:14.95    \nframe=  203 fps=0.8 q=44.7 size=     768KiB time=00:00:03.35 bitrate=1878.2kbits/s speed=0.0131x elapsed=0:04:15.52    \nframe=  204 fps=0.8 q=45.5 size=     768KiB time=00:00:03.36 bitrate=1868.9kbits/s speed=0.0131x elapsed=0:04:16.04    \nframe=  204 fps=0.8 q=45.5 size=     768KiB time=00:00:03.36 bitrate=1868.9kbits/s speed=0.0131x elapsed=0:04:16.59    \nframe=  204 fps=0.8 q=45.5 size=     768KiB time=00:00:03.36 bitrate=1868.9kbits/s speed=0.0131x elapsed=0:04:17.10    \nframe=  204 fps=0.8 q=45.5 size=     768KiB time=00:00:03.36 bitrate=1868.9kbits/s speed=0.0131x elapsed=0:04:17.63    \nframe=  204 fps=0.8 q=45.5 size=     768KiB time=00:00:03.36 bitrate=1868.9kbits/s speed=0.013x elapsed=0:04:18.15    \nframe=  206 fps=0.8 q=45.6 size=     768KiB time=00:00:03.40 bitrate=1850.5kbits/s speed=0.0131x elapsed=0:04:18.70    \nframe=  207 fps=0.8 q=40.0 size=     768KiB time=00:00:03.41 bitrate=1841.5kbits/s speed=0.0132x elapsed=0:04:19.25    \nframe=  207 fps=0.8 q=40.0 size=     768KiB time=00:00:03.41 bitrate=1841.5kbits/s speed=0.0132x elapsed=0:04:19.77    \nframe=  207 fps=0.8 q=40.0 size=     768KiB time=00:00:03.41 bitrate=1841.5kbits/s speed=0.0131x elapsed=0:04:20.30    \nframe=  208 fps=0.8 q=44.6 size=     768KiB time=00:00:03.43 bitrate=1832.6kbits/s speed=0.0132x elapsed=0:04:20.83    \nframe=  208 fps=0.8 q=44.6 size=     768KiB time=00:00:03.43 bitrate=1832.6kbits/s speed=0.0131x elapsed=0:04:21.34    \nframe=  208 fps=0.8 q=44.6 size=     768KiB time=00:00:03.43 bitrate=1832.6kbits/s speed=0.0131x elapsed=0:04:21.86    \nframe=  209 fps=0.8 q=46.1 size=     768KiB time=00:00:03.45 bitrate=1823.7kbits/s speed=0.0131x elapsed=0:04:22.39    \nframe=  210 fps=0.8 q=45.2 size=     768KiB time=00:00:03.46 bitrate=1814.9kbits/s speed=0.0132x elapsed=0:04:22.96    \nframe=  210 fps=0.8 q=45.2 size=     768KiB time=00:00:03.46 bitrate=1814.9kbits/s speed=0.0132x elapsed=0:04:23.52    \nframe=  211 fps=0.8 q=45.3 size=     768KiB time=00:00:03.48 bitrate=1806.3kbits/s speed=0.0132x elapsed=0:04:24.13    \nframe=  211 fps=0.8 q=45.3 size=     768KiB time=00:00:03.48 bitrate=1806.3kbits/s speed=0.0132x elapsed=0:04:24.68    \nframe=  211 fps=0.8 q=45.3 size=     768KiB time=00:00:03.48 bitrate=1806.3kbits/s speed=0.0131x elapsed=0:04:25.26    \nframe=  213 fps=0.8 q=44.6 size=     768KiB time=00:00:03.51 bitrate=1789.1kbits/s speed=0.0132x elapsed=0:04:25.80    \nframe=  213 fps=0.8 q=44.6 size=     768KiB time=00:00:03.51 bitrate=1789.1kbits/s speed=0.0132x elapsed=0:04:26.35    \nframe=  213 fps=0.8 q=44.6 size=     768KiB time=00:00:03.51 bitrate=1789.1kbits/s speed=0.0132x elapsed=0:04:26.90    \nframe=  213 fps=0.8 q=44.6 size=     768KiB time=00:00:03.51 bitrate=1789.1kbits/s speed=0.0131x elapsed=0:04:27.45    \nframe=  213 fps=0.8 q=44.6 size=     768KiB time=00:00:03.51 bitrate=1789.1kbits/s speed=0.0131x elapsed=0:04:27.95    \nframe=  214 fps=0.8 q=45.6 size=     768KiB time=00:00:03.53 bitrate=1780.7kbits/s speed=0.0132x elapsed=0:04:28.50    \nframe=  214 fps=0.8 q=45.6 size=     768KiB time=00:00:03.53 bitrate=1780.7kbits/s speed=0.0131x elapsed=0:04:29.04    \nframe=  214 fps=0.8 q=45.6 size=     768KiB time=00:00:03.53 bitrate=1780.7kbits/s speed=0.0131x elapsed=0:04:29.60    \nframe=  214 fps=0.8 q=45.6 size=     768KiB time=00:00:03.53 bitrate=1780.7kbits/s speed=0.0131x elapsed=0:04:30.18    \nframe=  215 fps=0.8 q=45.6 size=     768KiB time=00:00:03.55 bitrate=1772.3kbits/s speed=0.0131x elapsed=0:04:30.72    \nframe=  215 fps=0.8 q=45.6 size=     768KiB time=00:00:03.55 bitrate=1772.3kbits/s speed=0.0131x elapsed=0:04:31.25    \nframe=  216 fps=0.8 q=46.0 size=     768KiB time=00:00:03.56 bitrate=1764.1kbits/s speed=0.0131x elapsed=0:04:31.78    \nframe=  217 fps=0.8 q=39.9 size=     768KiB time=00:00:03.58 bitrate=1755.9kbits/s speed=0.0132x elapsed=0:04:32.36    \nframe=  217 fps=0.8 q=39.9 size=     768KiB time=00:00:03.58 bitrate=1755.9kbits/s speed=0.0131x elapsed=0:04:32.94    \nframe=  218 fps=0.8 q=45.1 size=     768KiB time=00:00:03.60 bitrate=1747.7kbits/s speed=0.0132x elapsed=0:04:33.48    \nframe=  218 fps=0.8 q=45.1 size=     768KiB time=00:00:03.60 bitrate=1747.7kbits/s speed=0.0131x elapsed=0:04:34.01    \nframe=  219 fps=0.8 q=46.2 size=     768KiB time=00:00:03.61 bitrate=1739.7kbits/s speed=0.0132x elapsed=0:04:34.53    \nframe=  219 fps=0.8 q=46.2 size=     768KiB time=00:00:03.61 bitrate=1739.7kbits/s speed=0.0131x elapsed=0:04:35.08    \nframe=  219 fps=0.8 q=46.2 size=     768KiB time=00:00:03.61 bitrate=1739.7kbits/s speed=0.0131x elapsed=0:04:35.67    \nframe=  219 fps=0.8 q=46.2 size=     768KiB time=00:00:03.61 bitrate=1739.7kbits/s speed=0.0131x elapsed=0:04:36.20    \nframe=  220 fps=0.8 q=45.7 size=     768KiB time=00:00:03.63 bitrate=1731.7kbits/s speed=0.0131x elapsed=0:04:36.76    \nframe=  220 fps=0.8 q=45.7 size=     768KiB time=00:00:03.63 bitrate=1731.7kbits/s speed=0.0131x elapsed=0:04:37.27    \nframe=  221 fps=0.8 q=45.8 size=     768KiB time=00:00:03.65 bitrate=1723.8kbits/s speed=0.0131x elapsed=0:04:37.82    \nframe=  221 fps=0.8 q=45.8 size=     768KiB time=00:00:03.65 bitrate=1723.8kbits/s speed=0.0131x elapsed=0:04:38.36    \nframe=  221 fps=0.8 q=45.8 size=     768KiB time=00:00:03.65 bitrate=1723.8kbits/s speed=0.0131x elapsed=0:04:38.96    \nframe=  221 fps=0.8 q=45.8 size=     768KiB time=00:00:03.65 bitrate=1723.8kbits/s speed=0.0131x elapsed=0:04:39.50    \nframe=  222 fps=0.8 q=39.8 size=     768KiB time=00:00:03.66 bitrate=1715.9kbits/s speed=0.0131x elapsed=0:04:40.04    \nframe=  222 fps=0.8 q=39.8 size=     768KiB time=00:00:03.66 bitrate=1715.9kbits/s speed=0.0131x elapsed=0:04:40.62    \nframe=  222 fps=0.8 q=39.8 size=     768KiB time=00:00:03.66 bitrate=1715.9kbits/s speed=0.013x elapsed=0:04:41.16    \nframe=  222 fps=0.8 q=39.8 size=     768KiB time=00:00:03.66 bitrate=1715.9kbits/s speed=0.013x elapsed=0:04:41.68    \nframe=  223 fps=0.8 q=45.2 size=     768KiB time=00:00:03.68 bitrate=1708.2kbits/s speed=0.0131x elapsed=0:04:42.21    \nframe=  223 fps=0.8 q=45.2 size=     768KiB time=00:00:03.68 bitrate=1708.2kbits/s speed=0.013x elapsed=0:04:42.77    \nframe=  223 fps=0.8 q=45.2 size=     768KiB time=00:00:03.68 bitrate=1708.2kbits/s speed=0.013x elapsed=0:04:43.32    \nframe=  223 fps=0.8 q=45.2 size=     768KiB time=00:00:03.68 bitrate=1708.2kbits/s speed=0.013x elapsed=0:04:43.84    \nframe=  224 fps=0.8 q=46.6 size=     768KiB time=00:00:03.70 bitrate=1700.5kbits/s speed=0.013x elapsed=0:04:44.34    \nframe=  225 fps=0.8 q=46.4 size=     768KiB time=00:00:03.71 bitrate=1692.9kbits/s speed=0.013x elapsed=0:04:44.87    \nframe=  225 fps=0.8 q=46.4 size=     768KiB time=00:00:03.71 bitrate=1692.9kbits/s speed=0.013x elapsed=0:04:45.41    \nframe=  225 fps=0.8 q=46.4 size=     768KiB time=00:00:03.71 bitrate=1692.9kbits/s speed=0.013x elapsed=0:04:45.96    \nframe=  225 fps=0.8 q=46.4 size=     768KiB time=00:00:03.71 bitrate=1692.9kbits/s speed=0.013x elapsed=0:04:46.52    \nframe=  226 fps=0.8 q=46.4 size=     768KiB time=00:00:03.73 bitrate=1685.3kbits/s speed=0.013x elapsed=0:04:47.07    \nframe=  226 fps=0.8 q=46.4 size=     768KiB time=00:00:03.73 bitrate=1685.3kbits/s speed=0.013x elapsed=0:04:47.64    \nframe=  226 fps=0.8 q=46.4 size=     768KiB time=00:00:03.73 bitrate=1685.3kbits/s speed=0.013x elapsed=0:04:48.20    \nframe=  226 fps=0.8 q=46.4 size=     768KiB time=00:00:03.73 bitrate=1685.3kbits/s speed=0.0129x elapsed=0:04:48.77    \nframe=  226 fps=0.8 q=46.4 size=     768KiB time=00:00:03.73 bitrate=1685.3kbits/s speed=0.0129x elapsed=0:04:49.37    \nframe=  226 fps=0.8 q=46.4 size=     768KiB time=00:00:03.73 bitrate=1685.3kbits/s speed=0.0129x elapsed=0:04:49.92    \nframe=  227 fps=0.8 q=40.3 size=     768KiB time=00:00:03.75 bitrate=1677.8kbits/s speed=0.0129x elapsed=0:04:50.48    \nframe=  227 fps=0.8 q=40.3 size=     768KiB time=00:00:03.75 bitrate=1677.8kbits/s speed=0.0129x elapsed=0:04:51.03    \nframe=  227 fps=0.8 q=40.3 size=     768KiB time=00:00:03.75 bitrate=1677.8kbits/s speed=0.0129x elapsed=0:04:51.57    \nframe=  227 fps=0.8 q=40.3 size=     768KiB time=00:00:03.75 bitrate=1677.8kbits/s speed=0.0128x elapsed=0:04:52.15    \nframe=  228 fps=0.8 q=46.7 size=     768KiB time=00:00:03.76 bitrate=1670.4kbits/s speed=0.0129x elapsed=0:04:52.66    \nframe=  228 fps=0.8 q=46.7 size=     768KiB time=00:00:03.76 bitrate=1670.4kbits/s speed=0.0128x elapsed=0:04:53.19    \nframe=  228 fps=0.8 q=46.7 size=     768KiB time=00:00:03.76 bitrate=1670.4kbits/s speed=0.0128x elapsed=0:04:53.73    \nframe=  229 fps=0.8 q=47.1 size=     768KiB time=00:00:03.78 bitrate=1663.0kbits/s speed=0.0129x elapsed=0:04:54.32    \nframe=  229 fps=0.8 q=47.1 size=     768KiB time=00:00:03.78 bitrate=1663.0kbits/s speed=0.0128x elapsed=0:04:54.93    \nframe=  230 fps=0.8 q=47.5 size=     768KiB time=00:00:03.80 bitrate=1655.7kbits/s speed=0.0129x elapsed=0:04:55.55    \nframe=  230 fps=0.8 q=47.5 size=     768KiB time=00:00:03.80 bitrate=1655.7kbits/s speed=0.0128x elapsed=0:04:56.19    \nframe=  230 fps=0.8 q=47.5 size=     768KiB time=00:00:03.80 bitrate=1655.7kbits/s speed=0.0128x elapsed=0:04:56.75    \nframe=  230 fps=0.8 q=47.5 size=     768KiB time=00:00:03.80 bitrate=1655.7kbits/s speed=0.0128x elapsed=0:04:57.28    \nframe=  230 fps=0.8 q=47.5 size=     768KiB time=00:00:03.80 bitrate=1655.7kbits/s speed=0.0128x elapsed=0:04:57.81    \nframe=  231 fps=0.8 q=47.3 size=     768KiB time=00:00:03.81 bitrate=1648.5kbits/s speed=0.0128x elapsed=0:04:58.34    \nframe=  231 fps=0.8 q=47.3 size=     768KiB time=00:00:03.81 bitrate=1648.5kbits/s speed=0.0128x elapsed=0:04:58.87    \nframe=  232 fps=0.8 q=41.8 size=     768KiB time=00:00:03.83 bitrate=1641.3kbits/s speed=0.0128x elapsed=0:04:59.42    \nframe=  232 fps=0.8 q=41.8 size=     768KiB time=00:00:03.83 bitrate=1641.3kbits/s speed=0.0128x elapsed=0:04:59.94    \nframe=  233 fps=0.8 q=47.9 size=     768KiB time=00:00:03.85 bitrate=1634.2kbits/s speed=0.0128x elapsed=0:05:00.45    \nframe=  234 fps=0.8 q=47.9 size=     768KiB time=00:00:03.86 bitrate=1627.2kbits/s speed=0.0128x elapsed=0:05:00.98    \nframe=  235 fps=0.8 q=48.1 size=     768KiB time=00:00:03.88 bitrate=1620.2kbits/s speed=0.0129x elapsed=0:05:01.49    \nframe=  235 fps=0.8 q=48.1 size=     768KiB time=00:00:03.88 bitrate=1620.2kbits/s speed=0.0129x elapsed=0:05:02.01    \nframe=  236 fps=0.8 q=48.3 size=     768KiB time=00:00:03.88 bitrate=1620.2kbits/s speed=0.0128x elapsed=0:05:02.55    \nframe=  236 fps=0.8 q=48.3 size=     768KiB time=00:00:03.90 bitrate=1613.3kbits/s speed=0.0129x elapsed=0:05:03.08    \nframe=  237 fps=0.8 q=42.6 size=     768KiB time=00:00:03.91 bitrate=1606.4kbits/s speed=0.0129x elapsed=0:05:03.61    \nframe=  238 fps=0.8 q=48.5 size=     768KiB time=00:00:03.93 bitrate=1599.6kbits/s speed=0.0129x elapsed=0:05:04.15    \nframe=  239 fps=0.8 q=48.4 size=     768KiB time=00:00:03.95 bitrate=1592.9kbits/s speed=0.013x elapsed=0:05:04.69    \nframe=  239 fps=0.8 q=48.4 size=     768KiB time=00:00:03.95 bitrate=1592.9kbits/s speed=0.0129x elapsed=0:05:05.21    \nframe=  240 fps=0.8 q=48.8 size=     768KiB time=00:00:03.96 bitrate=1586.2kbits/s speed=0.013x elapsed=0:05:05.73    \nframe=  240 fps=0.8 q=48.8 size=     768KiB time=00:00:03.96 bitrate=1586.2kbits/s speed=0.013x elapsed=0:05:06.24    \nframe=  241 fps=0.8 q=48.9 size=     768KiB time=00:00:03.98 bitrate=1579.5kbits/s speed=0.013x elapsed=0:05:06.75    \nframe=  241 fps=0.8 q=48.9 size=     768KiB time=00:00:03.98 bitrate=1579.5kbits/s speed=0.013x elapsed=0:05:07.28    \nframe=  242 fps=0.8 q=43.5 size=     768KiB time=00:00:03.98 bitrate=1579.5kbits/s speed=0.0129x elapsed=0:05:07.83    \nframe=  242 fps=0.8 q=43.5 size=     768KiB time=00:00:04.00 bitrate=1573.0kbits/s speed=0.013x elapsed=0:05:08.40    \nframe=  243 fps=0.8 q=49.1 size=     768KiB time=00:00:04.01 bitrate=1566.4kbits/s speed=0.013x elapsed=0:05:08.93    \nframe=  243 fps=0.8 q=49.1 size=     768KiB time=00:00:04.01 bitrate=1566.4kbits/s speed=0.013x elapsed=0:05:09.44    \nframe=  243 fps=0.8 q=49.1 size=     768KiB time=00:00:04.01 bitrate=1566.4kbits/s speed=0.013x elapsed=0:05:09.96    \nframe=  244 fps=0.8 q=49.2 size=     768KiB time=00:00:04.03 bitrate=1560.0kbits/s speed=0.013x elapsed=0:05:10.48    \nframe=  244 fps=0.8 q=49.2 size=     768KiB time=00:00:04.03 bitrate=1560.0kbits/s speed=0.013x elapsed=0:05:11.00    \nframe=  245 fps=0.8 q=49.5 size=     768KiB time=00:00:04.05 bitrate=1553.5kbits/s speed=0.013x elapsed=0:05:11.53    \nframe=  245 fps=0.8 q=49.5 size=     768KiB time=00:00:04.05 bitrate=1553.5kbits/s speed=0.013x elapsed=0:05:12.08    \nframe=  245 fps=0.8 q=49.5 size=     768KiB time=00:00:04.05 bitrate=1553.5kbits/s speed=0.013x elapsed=0:05:12.63    \nframe=  246 fps=0.8 q=49.5 size=     768KiB time=00:00:04.06 bitrate=1547.2kbits/s speed=0.013x elapsed=0:05:13.16    \nframe=  246 fps=0.8 q=49.5 size=     768KiB time=00:00:04.06 bitrate=1547.2kbits/s speed=0.013x elapsed=0:05:13.67    \nframe=  246 fps=0.8 q=49.5 size=     768KiB time=00:00:04.06 bitrate=1547.2kbits/s speed=0.0129x elapsed=0:05:14.20    \nframe=  246 fps=0.8 q=49.5 size=     768KiB time=00:00:04.06 bitrate=1547.2kbits/s speed=0.0129x elapsed=0:05:14.75    \nframe=  246 fps=0.8 q=49.5 size=     768KiB time=00:00:04.06 bitrate=1547.2kbits/s speed=0.0129x elapsed=0:05:15.27    \nframe=  248 fps=0.8 q=50.9 size=    1024KiB time=00:00:04.10 bitrate=2046.1kbits/s speed=0.013x elapsed=0:05:15.82    \nframe=  248 fps=0.8 q=50.9 size=    1024KiB time=00:00:04.10 bitrate=2046.1kbits/s speed=0.013x elapsed=0:05:16.36    \nframe=  249 fps=0.8 q=51.0 size=    1024KiB time=00:00:04.11 bitrate=2037.8kbits/s speed=0.013x elapsed=0:05:16.91    \nframe=  250 fps=0.8 q=50.8 size=    1024KiB time=00:00:04.13 bitrate=2029.6kbits/s speed=0.013x elapsed=0:05:17.42    \nframe=  250 fps=0.8 q=50.8 size=    1024KiB time=00:00:04.13 bitrate=2029.6kbits/s speed=0.013x elapsed=0:05:17.96    \nframe=  251 fps=0.8 q=50.8 size=    1024KiB time=00:00:04.15 bitrate=2021.4kbits/s speed=0.013x elapsed=0:05:18.49    \nframe=  251 fps=0.8 q=50.8 size=    1024KiB time=00:00:04.15 bitrate=2021.4kbits/s speed=0.013x elapsed=0:05:19.03    \nframe=  251 fps=0.8 q=50.8 size=    1024KiB time=00:00:04.15 bitrate=2021.4kbits/s speed=0.013x elapsed=0:05:19.58    \nframe=  251 fps=0.8 q=50.8 size=    1024KiB time=00:00:04.15 bitrate=2021.4kbits/s speed=0.013x elapsed=0:05:20.24    \nframe=  251 fps=0.8 q=50.8 size=    1024KiB time=00:00:04.15 bitrate=2021.4kbits/s speed=0.0129x elapsed=0:05:20.80    \nframe=  251 fps=0.8 q=50.8 size=    1024KiB time=00:00:04.15 bitrate=2021.4kbits/s speed=0.0129x elapsed=0:05:21.32    \nframe=  251 fps=0.8 q=50.8 size=    1024KiB time=00:00:04.15 bitrate=2021.4kbits/s speed=0.0129x elapsed=0:05:21.90    \nframe=  252 fps=0.8 q=44.5 size=    1024KiB time=00:00:04.16 bitrate=2013.4kbits/s speed=0.0129x elapsed=0:05:22.42    \nframe=  252 fps=0.8 q=44.5 size=    1024KiB time=00:00:04.16 bitrate=2013.4kbits/s speed=0.0129x elapsed=0:05:22.95    \nframe=  253 fps=0.8 q=50.0 size=    1024KiB time=00:00:04.18 bitrate=2005.3kbits/s speed=0.0129x elapsed=0:05:23.46    \nframe=  253 fps=0.8 q=50.0 size=    1024KiB time=00:00:04.18 bitrate=2005.3kbits/s speed=0.0129x elapsed=0:05:23.98    \nframe=  254 fps=0.8 q=50.9 size=    1024KiB time=00:00:04.20 bitrate=1997.4kbits/s speed=0.0129x elapsed=0:05:24.50    \nframe=  254 fps=0.8 q=50.9 size=    1024KiB time=00:00:04.20 bitrate=1997.4kbits/s speed=0.0129x elapsed=0:05:25.03    \nframe=  254 fps=0.8 q=50.9 size=    1024KiB time=00:00:04.20 bitrate=1997.4kbits/s speed=0.0129x elapsed=0:05:25.62    \nframe=  254 fps=0.8 q=50.9 size=    1024KiB time=00:00:04.20 bitrate=1997.4kbits/s speed=0.0129x elapsed=0:05:26.23    \nframe=  254 fps=0.8 q=50.9 size=    1024KiB time=00:00:04.20 bitrate=1997.4kbits/s speed=0.0129x elapsed=0:05:26.77    \nframe=  255 fps=0.8 q=50.9 size=    1024KiB time=00:00:04.21 bitrate=1989.5kbits/s speed=0.0129x elapsed=0:05:27.29    \nframe=  255 fps=0.8 q=50.9 size=    1024KiB time=00:00:04.21 bitrate=1989.5kbits/s speed=0.0129x elapsed=0:05:27.82    \nframe=  255 fps=0.8 q=50.9 size=    1024KiB time=00:00:04.21 bitrate=1989.5kbits/s speed=0.0128x elapsed=0:05:28.36    \nframe=  256 fps=0.8 q=50.7 size=    1024KiB time=00:00:04.23 bitrate=1981.6kbits/s speed=0.0129x elapsed=0:05:28.90    \nframe=  257 fps=0.8 q=46.3 size=    1024KiB time=00:00:04.25 bitrate=1973.9kbits/s speed=0.0129x elapsed=0:05:29.43    \nframe=  257 fps=0.8 q=46.3 size=    1024KiB time=00:00:04.25 bitrate=1973.9kbits/s speed=0.0129x elapsed=0:05:29.95    \nframe=  257 fps=0.8 q=46.3 size=    1024KiB time=00:00:04.25 bitrate=1973.9kbits/s speed=0.0129x elapsed=0:05:30.48    \nframe=  258 fps=0.8 q=50.9 size=    1024KiB time=00:00:04.26 bitrate=1966.2kbits/s speed=0.0129x elapsed=0:05:31.03    \nframe=  258 fps=0.8 q=50.9 size=    1024KiB time=00:00:04.26 bitrate=1966.2kbits/s speed=0.0129x elapsed=0:05:31.57    \nframe=  260 fps=0.8 q=50.9 size=    1024KiB time=00:00:04.30 bitrate=1950.9kbits/s speed=0.0129x elapsed=0:05:32.10    \nframe=  260 fps=0.8 q=50.9 size=    1024KiB time=00:00:04.30 bitrate=1950.9kbits/s speed=0.0129x elapsed=0:05:32.64    \nframe=  260 fps=0.8 q=50.9 size=    1024KiB time=00:00:04.30 bitrate=1950.9kbits/s speed=0.0129x elapsed=0:05:33.21    \nframe=  260 fps=0.8 q=50.9 size=    1024KiB time=00:00:04.30 bitrate=1950.9kbits/s speed=0.0129x elapsed=0:05:33.79    \nframe=  260 fps=0.8 q=50.9 size=    1024KiB time=00:00:04.30 bitrate=1950.9kbits/s speed=0.0129x elapsed=0:05:34.33    \nframe=  260 fps=0.8 q=50.9 size=    1024KiB time=00:00:04.30 bitrate=1950.9kbits/s speed=0.0128x elapsed=0:05:34.89    \nframe=  260 fps=0.8 q=50.9 size=    1024KiB time=00:00:04.30 bitrate=1950.9kbits/s speed=0.0128x elapsed=0:05:35.48    \nframe=  261 fps=0.8 q=51.0 size=    1024KiB time=00:00:04.31 bitrate=1943.4kbits/s speed=0.0128x elapsed=0:05:36.09    \nframe=  261 fps=0.8 q=51.0 size=    1024KiB time=00:00:04.31 bitrate=1943.4kbits/s speed=0.0128x elapsed=0:05:36.64    \nframe=  261 fps=0.8 q=51.0 size=    1024KiB time=00:00:04.31 bitrate=1943.4kbits/s speed=0.0128x elapsed=0:05:37.17    \nframe=  261 fps=0.8 q=51.0 size=    1024KiB time=00:00:04.31 bitrate=1943.4kbits/s speed=0.0128x elapsed=0:05:37.70    \nframe=  262 fps=0.8 q=46.7 size=    1024KiB time=00:00:04.33 bitrate=1935.9kbits/s speed=0.0128x elapsed=0:05:38.23    \nframe=  262 fps=0.8 q=46.7 size=    1024KiB time=00:00:04.33 bitrate=1935.9kbits/s speed=0.0128x elapsed=0:05:38.79    \nframe=  262 fps=0.8 q=46.7 size=    1024KiB time=00:00:04.33 bitrate=1935.9kbits/s speed=0.0128x elapsed=0:05:39.31    \nframe=  263 fps=0.8 q=51.0 size=    1024KiB time=00:00:04.35 bitrate=1928.5kbits/s speed=0.0128x elapsed=0:05:39.81    \nframe=  263 fps=0.8 q=51.0 size=    1024KiB time=00:00:04.35 bitrate=1928.5kbits/s speed=0.0128x elapsed=0:05:40.34    \nframe=  264 fps=0.8 q=51.0 size=    1024KiB time=00:00:04.36 bitrate=1921.1kbits/s speed=0.0128x elapsed=0:05:40.86    \nframe=  265 fps=0.8 q=51.0 size=    1024KiB time=00:00:04.38 bitrate=1913.8kbits/s speed=0.0128x elapsed=0:05:41.37    \nframe=  265 fps=0.8 q=51.0 size=    1024KiB time=00:00:04.38 bitrate=1913.8kbits/s speed=0.0128x elapsed=0:05:41.91    \nframe=  266 fps=0.8 q=51.0 size=    1024KiB time=00:00:04.40 bitrate=1906.6kbits/s speed=0.0128x elapsed=0:05:42.49    \nframe=  266 fps=0.8 q=51.0 size=    1024KiB time=00:00:04.40 bitrate=1906.6kbits/s speed=0.0128x elapsed=0:05:43.01    \nframe=  267 fps=0.8 q=47.3 size=    1024KiB time=00:00:04.41 bitrate=1899.4kbits/s speed=0.0129x elapsed=0:05:43.52    \nframe=  267 fps=0.8 q=47.3 size=    1024KiB time=00:00:04.41 bitrate=1899.4kbits/s speed=0.0128x elapsed=0:05:44.04    \nframe=  267 fps=0.8 q=47.3 size=    1024KiB time=00:00:04.41 bitrate=1899.4kbits/s speed=0.0128x elapsed=0:05:44.55    \nframe=  268 fps=0.8 q=51.0 size=    1024KiB time=00:00:04.43 bitrate=1892.2kbits/s speed=0.0128x elapsed=0:05:45.06    \nframe=  268 fps=0.8 q=51.0 size=    1024KiB time=00:00:04.43 bitrate=1892.2kbits/s speed=0.0128x elapsed=0:05:45.58    \nframe=  268 fps=0.8 q=51.0 size=    1024KiB time=00:00:04.43 bitrate=1892.2kbits/s speed=0.0128x elapsed=0:05:46.11    \nframe=  269 fps=0.8 q=51.0 size=    1024KiB time=00:00:04.45 bitrate=1885.2kbits/s speed=0.0128x elapsed=0:05:46.65    \nframe=  270 fps=0.8 q=51.0 size=    1024KiB time=00:00:04.46 bitrate=1878.1kbits/s speed=0.0129x elapsed=0:05:47.18    \nframe=  270 fps=0.8 q=51.0 size=    1024KiB time=00:00:04.46 bitrate=1878.1kbits/s speed=0.0128x elapsed=0:05:47.70    \nframe=  271 fps=0.8 q=51.0 size=    1024KiB time=00:00:04.48 bitrate=1871.1kbits/s speed=0.0129x elapsed=0:05:48.24    \nframe=  272 fps=0.8 q=48.0 size=    1024KiB time=00:00:04.50 bitrate=1864.2kbits/s speed=0.0129x elapsed=0:05:48.79    \nframe=  272 fps=0.8 q=48.0 size=    1024KiB time=00:00:04.50 bitrate=1864.2kbits/s speed=0.0129x elapsed=0:05:49.33    \nframe=  272 fps=0.8 q=48.0 size=    1024KiB time=00:00:04.50 bitrate=1864.2kbits/s speed=0.0129x elapsed=0:05:49.85    \nframe=  273 fps=0.8 q=51.0 size=    1024KiB time=00:00:04.51 bitrate=1857.3kbits/s speed=0.0129x elapsed=0:05:50.38    \nframe=  273 fps=0.8 q=51.0 size=    1024KiB time=00:00:04.51 bitrate=1857.3kbits/s speed=0.0129x elapsed=0:05:50.90    \nframe=  273 fps=0.8 q=51.0 size=    1024KiB time=00:00:04.51 bitrate=1857.3kbits/s speed=0.0129x elapsed=0:05:51.43    \nframe=  274 fps=0.8 q=51.0 size=    1024KiB time=00:00:04.53 bitrate=1850.5kbits/s speed=0.0129x elapsed=0:05:51.98    \nframe=  275 fps=0.8 q=51.0 size=    1024KiB time=00:00:04.55 bitrate=1843.7kbits/s speed=0.0129x elapsed=0:05:52.51    \nframe=  276 fps=0.8 q=51.0 size=    1024KiB time=00:00:04.56 bitrate=1837.0kbits/s speed=0.0129x elapsed=0:05:53.03    \nframe=  276 fps=0.8 q=51.0 size=    1024KiB time=00:00:04.56 bitrate=1837.0kbits/s speed=0.0129x elapsed=0:05:53.58    \nframe=  276 fps=0.8 q=51.0 size=    1024KiB time=00:00:04.56 bitrate=1837.0kbits/s speed=0.0129x elapsed=0:05:54.08    \nframe=  277 fps=0.8 q=48.6 size=    1024KiB time=00:00:04.58 bitrate=1830.3kbits/s speed=0.0129x elapsed=0:05:54.60    \nframe=  277 fps=0.8 q=48.6 size=    1024KiB time=00:00:04.58 bitrate=1830.3kbits/s speed=0.0129x elapsed=0:05:55.12    \nframe=  278 fps=0.8 q=51.0 size=    1024KiB time=00:00:04.60 bitrate=1823.7kbits/s speed=0.0129x elapsed=0:05:55.64    \nframe=  278 fps=0.8 q=51.0 size=    1024KiB time=00:00:04.60 bitrate=1823.7kbits/s speed=0.0129x elapsed=0:05:56.17    \nframe=  278 fps=0.8 q=51.0 size=    1024KiB time=00:00:04.60 bitrate=1823.7kbits/s speed=0.0129x elapsed=0:05:56.72    \nframe=  279 fps=0.8 q=51.0 size=    1024KiB time=00:00:04.61 bitrate=1817.1kbits/s speed=0.0129x elapsed=0:05:57.26    \nframe=  280 fps=0.8 q=51.0 size=    1024KiB time=00:00:04.63 bitrate=1810.6kbits/s speed=0.013x elapsed=0:05:57.78    \nframe=  281 fps=0.8 q=48.8 size=    1024KiB time=00:00:04.65 bitrate=1804.1kbits/s speed=0.013x elapsed=0:05:58.30    \nframe=  281 fps=0.8 q=48.8 size=    1024KiB time=00:00:04.65 bitrate=1804.1kbits/s speed=0.013x elapsed=0:05:58.84    \nframe=  281 fps=0.8 q=48.8 size=    1024KiB time=00:00:04.65 bitrate=1804.1kbits/s speed=0.0129x elapsed=0:05:59.36    \nframe=  281 fps=0.8 q=48.8 size=    1024KiB time=00:00:04.65 bitrate=1804.1kbits/s speed=0.0129x elapsed=0:05:59.88    \nframe=  282 fps=0.8 q=51.0 size=    1024KiB time=00:00:04.66 bitrate=1797.6kbits/s speed=0.0129x elapsed=0:06:00.41    \nframe=  282 fps=0.8 q=51.0 size=    1024KiB time=00:00:04.66 bitrate=1797.6kbits/s speed=0.0129x elapsed=0:06:00.94    \nframe=  284 fps=0.8 q=51.0 size=    1024KiB time=00:00:04.70 bitrate=1784.9kbits/s speed=0.013x elapsed=0:06:01.46    \nframe=  285 fps=0.8 q=51.0 size=    1024KiB time=00:00:04.71 bitrate=1778.6kbits/s speed=0.013x elapsed=0:06:01.97    \nframe=  285 fps=0.8 q=51.0 size=    1024KiB time=00:00:04.71 bitrate=1778.6kbits/s speed=0.013x elapsed=0:06:02.50    \nframe=  285 fps=0.8 q=51.0 size=    1024KiB time=00:00:04.71 bitrate=1778.6kbits/s speed=0.013x elapsed=0:06:03.04    \nframe=  285 fps=0.8 q=51.0 size=    1024KiB time=00:00:04.71 bitrate=1778.6kbits/s speed=0.013x elapsed=0:06:03.57    \nframe=  285 fps=0.8 q=51.0 size=    1024KiB time=00:00:04.71 bitrate=1778.6kbits/s speed=0.013x elapsed=0:06:04.10    \nframe=  285 fps=0.8 q=51.0 size=    1024KiB time=00:00:04.71 bitrate=1778.6kbits/s speed=0.0129x elapsed=0:06:04.62    \nframe=  286 fps=0.8 q=49.5 size=    1024KiB time=00:00:04.73 bitrate=1772.3kbits/s speed=0.013x elapsed=0:06:05.13    \nframe=  287 fps=0.8 q=51.0 size=    1024KiB time=00:00:04.75 bitrate=1766.1kbits/s speed=0.013x elapsed=0:06:05.65    \nframe=  288 fps=0.8 q=51.0 size=    1024KiB time=00:00:04.76 bitrate=1759.9kbits/s speed=0.013x elapsed=0:06:06.16    \nframe=  289 fps=0.8 q=51.0 size=    1024KiB time=00:00:04.78 bitrate=1753.8kbits/s speed=0.013x elapsed=0:06:06.68    \nframe=  289 fps=0.8 q=51.0 size=    1024KiB time=00:00:04.78 bitrate=1753.8kbits/s speed=0.013x elapsed=0:06:07.20    \nframe=  289 fps=0.8 q=51.0 size=    1024KiB time=00:00:04.78 bitrate=1753.8kbits/s speed=0.013x elapsed=0:06:07.72    \nframe=  291 fps=0.8 q=50.4 size=    1024KiB time=00:00:04.81 bitrate=1741.7kbits/s speed=0.0131x elapsed=0:06:08.22    \nframe=  292 fps=0.8 q=51.0 size=    1024KiB time=00:00:04.83 bitrate=1735.6kbits/s speed=0.0131x elapsed=0:06:08.75    \nframe=  292 fps=0.8 q=51.0 size=    1024KiB time=00:00:04.83 bitrate=1735.6kbits/s speed=0.0131x elapsed=0:06:09.25    \nframe=  293 fps=0.8 q=51.0 size=    1024KiB time=00:00:04.85 bitrate=1729.7kbits/s speed=0.0131x elapsed=0:06:09.78    \nframe=  294 fps=0.8 q=51.0 size=    1024KiB time=00:00:04.86 bitrate=1723.8kbits/s speed=0.0131x elapsed=0:06:10.31    \nframe=  295 fps=0.8 q=51.0 size=    1024KiB time=00:00:04.88 bitrate=1717.9kbits/s speed=0.0132x elapsed=0:06:10.83    \nframe=  295 fps=0.8 q=51.0 size=    1024KiB time=00:00:04.88 bitrate=1717.9kbits/s speed=0.0131x elapsed=0:06:11.35    \nframe=  296 fps=0.8 q=51.0 size=    1024KiB time=00:00:04.90 bitrate=1712.0kbits/s speed=0.0132x elapsed=0:06:11.88    \nframe=  297 fps=0.8 q=51.0 size=    1024KiB time=00:00:04.91 bitrate=1706.2kbits/s speed=0.0132x elapsed=0:06:12.43    \nframe=  297 fps=0.8 q=51.0 size=    1024KiB time=00:00:04.91 bitrate=1706.2kbits/s speed=0.0132x elapsed=0:06:12.95    \n[mp4 @ 000001efcd5e7ac0] Starting second pass: moving the moov atom to the beginning of the file\n[out#0/mp4 @ 000001efcd55ab40] video:1280KiB audio:0KiB subtitle:0KiB other streams:0KiB global headers:2KiB muxing overhead: 0.520235%\nframe=  300 fps=0.8 q=51.0 Lsize=    1287KiB time=00:00:04.96 bitrate=2122.0kbits/s speed=0.0133x elapsed=0:06:13.09    \nx265 [info]: frame I:      2, Avg QP:42.10  kb/s: 28060.80\nx265 [info]: frame P:     59, Avg QP:42.18  kb/s: 4287.68 \nx265 [info]: frame B:    239, Avg QP:47.60  kb/s: 1336.40 \nx265 [info]: Weighted P-Frames: Y:0.0% UV:0.0%\n\nencoded 300 frames in 372.73s (0.80 fps), 2094.98 kb/s, Avg QP:46.50\n",
  "seconds": 373.4608566761017,
  "probe_out": {}
}